<?xml version="1.0" encoding="utf-8"?>
<!-- Generator: Adobe Illustrator 15.1.0, SVG Export Plug-In . SVG Version: 6.00 Build 0)  -->
<!DOCTYPE svg PUBLIC "-//W3C//DTD SVG 1.1//EN" "http://www.w3.org/Graphics/SVG/1.1/DTD/svg11.dtd">
<svg version="1.1" id="Layer_1" xmlns="http://www.w3.org/2000/svg" xmlns:xlink="http://www.w3.org/1999/xlink" x="0px" y="0px"
	 width="612px" height="792px" viewBox="0 0 612 792" enable-background="new 0 0 612 792" xml:space="preserve">
<radialGradient id="SVGID_1_" cx="304.1787" cy="393.6465" r="357.2394" gradientUnits="userSpaceOnUse">
	<stop  offset="0" style="stop-color:#DA1C5C"/>
	<stop  offset="0" style="stop-color:#9FDBEF"/>
	<stop  offset="1" style="stop-color:#43A03E"/>
</radialGradient>
<rect x="-1.821" y="-8.354" fill="url(#SVGID_1_)" width="612" height="804"/>
<linearGradient id="SVGID_2_" gradientUnits="userSpaceOnUse" x1="250.9243" y1="505.1934" x2="278.4277" y2="505.1934" gradientTransform="matrix(-0.8888 0 0 1 595.0476 0)">
	<stop  offset="0" style="stop-color:#603913"/>
	<stop  offset="0.6485" style="stop-color:#3C1E00"/>
	<stop  offset="1" style="stop-color:#603913"/>
</linearGradient>
<path fill="url(#SVGID_2_)" d="M347.708,518.62c-0.319,7.627-0.506,13.279,5.541,17.567c8.864,6.287,24.917,1.056,16.324-12.83
	c-0.26,0.098-0.022,0.002,0,0c-10.102-15.143-12.87-32.481-12.732-51.793C350.193,485.171,348.353,503.242,347.708,518.62z"/>
<linearGradient id="SVGID_3_" gradientUnits="userSpaceOnUse" x1="256.3262" y1="526.1348" x2="267.4829" y2="526.1348" gradientTransform="matrix(-0.8888 0 0 1 595.0476 0)">
	<stop  offset="0" style="stop-color:#FFFFFF"/>
	<stop  offset="0" style="stop-color:#FFFFFF;stop-opacity:0.4"/>
	<stop  offset="1" style="stop-color:#FFFFFF;stop-opacity:0.15"/>
</linearGradient>
<path fill="url(#SVGID_3_)" d="M364.826,532.797c6.94-9.009-6.743-18.18-7.962-10.382c5.459,0.239,8.068,3.467,7.369,9.716
	L364.826,532.797z"/>
<radialGradient id="SVGID_4_" cx="288.1279" cy="414.9639" r="149.7371" fx="291.0865" fy="379.7549" gradientUnits="userSpaceOnUse">
	<stop  offset="0" style="stop-color:#DA1C5C"/>
	<stop  offset="0" style="stop-color:#ED1C24"/>
	<stop  offset="1" style="stop-color:#B11116"/>
</radialGradient>
<path fill="url(#SVGID_4_)" d="M402.355,355.615c0,61.515-53.325,186.179-119.105,186.179S164.145,417.13,164.145,355.615
	c0-61.514,53.325-85.366,119.105-85.366S402.355,294.101,402.355,355.615z"/>
<linearGradient id="SVGID_5_" gradientUnits="userSpaceOnUse" x1="227.5313" y1="358.811" x2="227.735" y2="341.4263">
	<stop  offset="0" style="stop-color:#DA1C5C"/>
	<stop  offset="0" style="stop-color:#E82027"/>
	<stop  offset="1" style="stop-color:#C12126"/>
</linearGradient>
<path fill="url(#SVGID_5_)" d="M227.679,358.683c-4.205,0-7.375-5.32-7.375-12.375s3.17-12.375,7.375-12.375
	s7.375,5.32,7.375,12.375S231.883,358.683,227.679,358.683z"/>
<linearGradient id="SVGID_6_" gradientUnits="userSpaceOnUse" x1="227.6787" y1="335.5161" x2="227.6787" y2="353.5161">
	<stop  offset="0" style="stop-color:#DA1C5C"/>
	<stop  offset="0" style="stop-color:#FAA85F"/>
	<stop  offset="1" style="stop-color:#AF4119"/>
</linearGradient>
<ellipse fill="url(#SVGID_6_)" cx="227.679" cy="346.308" rx="5.375" ry="10.375"/>
<linearGradient id="SVGID_7_" gradientUnits="userSpaceOnUse" x1="220.9048" y1="319.5576" x2="221.1085" y2="302.1722" gradientTransform="matrix(0.9663 0.2573 -0.2573 0.9663 65.5817 -36.025)">
	<stop  offset="0" style="stop-color:#DA1C5C"/>
	<stop  offset="0" style="stop-color:#E82027"/>
	<stop  offset="1" style="stop-color:#C12126"/>
</linearGradient>
<path fill="url(#SVGID_7_)" d="M196.995,329.516c-4.063-1.082-5.758-7.039-3.943-13.856c1.815-6.817,6.248-11.143,10.311-10.061
	s5.758,7.039,3.943,13.856C205.49,326.272,201.058,330.598,196.995,329.516z"/>
<linearGradient id="SVGID_8_" gradientUnits="userSpaceOnUse" x1="221.0513" y1="296.2622" x2="221.0513" y2="314.2631" gradientTransform="matrix(0.9663 0.2573 -0.2573 0.9663 65.5817 -36.025)">
	<stop  offset="0" style="stop-color:#DA1C5C"/>
	<stop  offset="0" style="stop-color:#FAA85F"/>
	<stop  offset="1" style="stop-color:#AF4119"/>
</linearGradient>
<path fill="url(#SVGID_8_)" d="M205.373,318.94c-1.474,5.537-4.994,9.407-7.863,8.643c-2.869-0.764-3.999-5.872-2.524-11.409
	c1.474-5.537,4.994-9.407,7.863-8.643C205.717,308.295,206.847,313.403,205.373,318.94z"/>
<linearGradient id="SVGID_9_" gradientUnits="userSpaceOnUse" x1="270.5322" y1="400.8105" x2="270.736" y2="383.4258">
	<stop  offset="0" style="stop-color:#DA1C5C"/>
	<stop  offset="0" style="stop-color:#E82027"/>
	<stop  offset="1" style="stop-color:#C12126"/>
</linearGradient>
<path fill="url(#SVGID_9_)" d="M270.679,400.683c-4.205,0-7.375-5.32-7.375-12.375s3.17-12.375,7.375-12.375
	s7.375,5.32,7.375,12.375S274.883,400.683,270.679,400.683z"/>
<linearGradient id="SVGID_10_" gradientUnits="userSpaceOnUse" x1="270.6787" y1="377.5161" x2="270.6787" y2="395.5165">
	<stop  offset="0" style="stop-color:#DA1C5C"/>
	<stop  offset="0" style="stop-color:#FAA85F"/>
	<stop  offset="1" style="stop-color:#AF4119"/>
</linearGradient>
<ellipse fill="url(#SVGID_10_)" cx="270.679" cy="388.308" rx="5.375" ry="10.375"/>
<g>
	<g>
		<path fill="#F36F5F" d="M262.921,324.618c-8.791-1.416-17.401,0.004-25.132-5.444c-6.606-4.656-5.573-9.953-9.396-16.197
			c-8.116-13.255-30.771-6.263-39.78,2.139c-14.191,13.235-16.331,25.359-14.136,43.853c1.617,13.624-2.939,30.058,4.951,42.033
			c2.799,4.247,9.534,11.094,15.239,9.865c5.903-1.271,8.625-9.985,12.616-13.959c5.997-5.972,14.702-8.19,23.25-8.641
			c6.795-0.358,15.054-1.715,21.27-6.667c5.984-2.783,3.464-6.822,4.984-12c3.257-11.1,15.667-9.016,23.016-15.372
			C291.273,334.306,270.391,325.821,262.921,324.618z M192.811,386.356c-0.312,0.029-0.624,0.044-0.933,0.044
			c-6.767,0-12.121-6.653-13.02-16.18c-0.945-10.023,3.549-17.787,10.688-18.461c0.312-0.029,0.624-0.044,0.933-0.044
			c6.767,0,12.121,6.653,13.02,16.18C204.444,377.918,199.95,385.682,192.811,386.356z M212.137,320.741
			c-2.22,8.338-7.798,13.94-13.88,13.94c-0.859,0-1.717-0.112-2.548-0.334c-3.681-0.979-6.487-3.983-7.699-8.24
			c-0.985-3.461-0.913-7.519,0.21-11.734c2.22-8.338,7.798-13.94,13.88-13.94c0.859,0,1.717,0.112,2.548,0.334
			c3.681,0.979,6.487,3.983,7.699,8.24C213.332,312.468,213.26,316.526,212.137,320.741z M227.679,363.683
			c-7.17,0-12.375-7.307-12.375-17.375s5.205-17.375,12.375-17.375s12.375,7.307,12.375,17.375S234.849,363.683,227.679,363.683z"/>
	</g>
</g>
<linearGradient id="SVGID_11_" gradientUnits="userSpaceOnUse" x1="183.2441" y1="383.5684" x2="183.4479" y2="366.1836" gradientTransform="matrix(0.9956 -0.0939 0.0939 0.9956 -26.2476 16.8463)">
	<stop  offset="0" style="stop-color:#DA1C5C"/>
	<stop  offset="0" style="stop-color:#E82027"/>
	<stop  offset="1" style="stop-color:#C12126"/>
</linearGradient>
<path fill="url(#SVGID_11_)" d="M192.341,381.378c-4.186,0.395-7.842-4.604-8.505-11.627s1.994-12.618,6.18-13.013
	s7.842,4.604,8.505,11.627S196.527,380.983,192.341,381.378z"/>
<linearGradient id="SVGID_12_" gradientUnits="userSpaceOnUse" x1="183.3906" y1="360.2739" x2="183.3906" y2="378.2735" gradientTransform="matrix(0.9956 -0.0939 0.0939 0.9956 -26.2476 16.8463)">
	<stop  offset="0" style="stop-color:#DA1C5C"/>
	<stop  offset="0" style="stop-color:#FAA85F"/>
	<stop  offset="1" style="stop-color:#AF4119"/>
</linearGradient>
<path fill="url(#SVGID_12_)" d="M196.53,368.553c0.539,5.705-1.421,10.555-4.376,10.834s-5.788-4.12-6.326-9.824
	c-0.539-5.705,1.421-10.555,4.376-10.834S195.992,362.848,196.53,368.553z"/>
<linearGradient id="SVGID_13_" gradientUnits="userSpaceOnUse" x1="253.1567" y1="313.4365" x2="253.3605" y2="296.0515">
	<stop  offset="0" style="stop-color:#DA1C5C"/>
	<stop  offset="0" style="stop-color:#E82027"/>
	<stop  offset="1" style="stop-color:#C12126"/>
</linearGradient>
<path fill="url(#SVGID_13_)" d="M253.304,313.308c-4.205,0-7.375-5.32-7.375-12.375s3.17-12.375,7.375-12.375
	s7.375,5.32,7.375,12.375S257.508,313.308,253.304,313.308z"/>
<linearGradient id="SVGID_14_" gradientUnits="userSpaceOnUse" x1="253.3037" y1="290.1411" x2="253.3037" y2="308.1411">
	<stop  offset="0" style="stop-color:#DA1C5C"/>
	<stop  offset="0" style="stop-color:#FAA85F"/>
	<stop  offset="1" style="stop-color:#AF4119"/>
</linearGradient>
<ellipse fill="url(#SVGID_14_)" cx="253.304" cy="300.933" rx="5.375" ry="10.375"/>
<linearGradient id="SVGID_15_" gradientUnits="userSpaceOnUse" x1="304.0313" y1="317.937" x2="304.235" y2="300.5523">
	<stop  offset="0" style="stop-color:#DA1C5C"/>
	<stop  offset="0" style="stop-color:#E82027"/>
	<stop  offset="1" style="stop-color:#C12126"/>
</linearGradient>
<path fill="url(#SVGID_15_)" d="M304.179,317.809c-4.205,0-7.375-5.32-7.375-12.375s3.17-12.375,7.375-12.375
	c4.204,0,7.375,5.32,7.375,12.375S308.383,317.809,304.179,317.809z"/>
<linearGradient id="SVGID_16_" gradientUnits="userSpaceOnUse" x1="304.1782" y1="294.6421" x2="304.1782" y2="312.6421">
	<stop  offset="0" style="stop-color:#DA1C5C"/>
	<stop  offset="0" style="stop-color:#FAA85F"/>
	<stop  offset="1" style="stop-color:#AF4119"/>
</linearGradient>
<ellipse fill="url(#SVGID_16_)" cx="304.179" cy="305.434" rx="5.375" ry="10.375"/>
<linearGradient id="SVGID_17_" gradientUnits="userSpaceOnUse" x1="342.4053" y1="352.0049" x2="342.609" y2="334.6201" gradientTransform="matrix(0.9823 -0.1874 0.1874 0.9823 -41.767 66.6343)">
	<stop  offset="0" style="stop-color:#DA1C5C"/>
	<stop  offset="0" style="stop-color:#E82027"/>
	<stop  offset="1" style="stop-color:#C12126"/>
</linearGradient>
<path fill="url(#SVGID_17_)" d="M360.664,348.088c-4.129,0.788-8.241-3.844-9.563-10.773c-1.322-6.929,0.795-12.75,4.925-13.538
	s8.241,3.844,9.563,10.773S364.795,347.3,360.664,348.088z"/>
<linearGradient id="SVGID_18_" gradientUnits="userSpaceOnUse" x1="342.5527" y1="328.7114" x2="342.5527" y2="346.711" gradientTransform="matrix(0.9823 -0.1874 0.1874 0.9823 -41.767 66.6343)">
	<stop  offset="0" style="stop-color:#DA1C5C"/>
	<stop  offset="0" style="stop-color:#FAA85F"/>
	<stop  offset="1" style="stop-color:#AF4119"/>
</linearGradient>
<path fill="url(#SVGID_18_)" d="M363.624,334.925c1.074,5.628-0.418,10.642-3.335,11.199c-2.916,0.556-6.15-3.555-7.224-9.184
	c-1.074-5.628,0.418-10.643,3.335-11.199C359.316,325.185,362.551,329.297,363.624,334.925z"/>
<linearGradient id="SVGID_19_" gradientUnits="userSpaceOnUse" x1="299.8652" y1="360.811" x2="300.069" y2="343.4263">
	<stop  offset="0" style="stop-color:#DA1C5C"/>
	<stop  offset="0" style="stop-color:#E82027"/>
	<stop  offset="1" style="stop-color:#C12126"/>
</linearGradient>
<path fill="url(#SVGID_19_)" d="M300.012,360.683c-4.205,0-7.375-5.32-7.375-12.375s3.17-12.375,7.375-12.375
	s7.375,5.32,7.375,12.375S304.217,360.683,300.012,360.683z"/>
<linearGradient id="SVGID_20_" gradientUnits="userSpaceOnUse" x1="300.0122" y1="337.5161" x2="300.0122" y2="355.5161">
	<stop  offset="0" style="stop-color:#DA1C5C"/>
	<stop  offset="0" style="stop-color:#FAA85F"/>
	<stop  offset="1" style="stop-color:#AF4119"/>
</linearGradient>
<ellipse fill="url(#SVGID_20_)" cx="300.012" cy="348.308" rx="5.375" ry="10.375"/>
<linearGradient id="SVGID_21_" gradientUnits="userSpaceOnUse" x1="198.061" y1="438.7988" x2="198.2648" y2="421.4141" gradientTransform="matrix(0.9907 -0.1363 0.1363 0.9907 -44.1224 27.66)">
	<stop  offset="0" style="stop-color:#DA1C5C"/>
	<stop  offset="0" style="stop-color:#E82027"/>
	<stop  offset="1" style="stop-color:#C12126"/>
</linearGradient>
<path fill="url(#SVGID_21_)" d="M212.032,435.234c-4.165,0.572-8.031-4.267-8.992-11.256c-0.961-6.988,1.455-12.691,5.62-13.264
	c4.165-0.573,8.031,4.266,8.992,11.254C218.613,428.958,216.197,434.66,212.032,435.234z"/>
<linearGradient id="SVGID_22_" gradientUnits="userSpaceOnUse" x1="198.2075" y1="415.5029" x2="198.2075" y2="433.5029" gradientTransform="matrix(0.9907 -0.1363 0.1363 0.9907 -44.1224 27.66)">
	<stop  offset="0" style="stop-color:#DA1C5C"/>
	<stop  offset="0" style="stop-color:#FAA85F"/>
	<stop  offset="1" style="stop-color:#AF4119"/>
</linearGradient>
<path fill="url(#SVGID_22_)" d="M215.67,422.242c0.781,5.676-0.97,10.605-3.911,11.01c-2.941,0.404-5.958-3.869-6.738-9.545
	c-0.781-5.678,0.97-10.606,3.911-11.012C211.873,412.291,214.89,416.565,215.67,422.242z"/>
<linearGradient id="SVGID_23_" gradientUnits="userSpaceOnUse" x1="220.6821" y1="505.5205" x2="220.8859" y2="488.1354" gradientTransform="matrix(0.967 -0.2547 0.2547 0.967 -96.6841 67.8422)">
	<stop  offset="0" style="stop-color:#DA1C5C"/>
	<stop  offset="0" style="stop-color:#E82027"/>
	<stop  offset="1" style="stop-color:#C12126"/>
</linearGradient>
<path fill="url(#SVGID_23_)" d="M245.581,500.312c-4.066,1.071-8.487-3.266-10.284-10.088c-1.797-6.822-0.086-12.774,3.979-13.846
	s8.487,3.267,10.284,10.088C251.357,493.288,249.647,499.24,245.581,500.312z"/>
<linearGradient id="SVGID_24_" gradientUnits="userSpaceOnUse" x1="220.8286" y1="482.2266" x2="220.8286" y2="500.2266" gradientTransform="matrix(0.967 -0.2547 0.2547 0.967 -96.6841 67.8422)">
	<stop  offset="0" style="stop-color:#DA1C5C"/>
	<stop  offset="0" style="stop-color:#FAA85F"/>
	<stop  offset="1" style="stop-color:#AF4119"/>
</linearGradient>
<path fill="url(#SVGID_24_)" d="M247.626,486.976c1.46,5.541,0.316,10.646-2.555,11.402c-2.871,0.756-6.381-3.122-7.841-8.664
	c-1.459-5.541-0.316-10.646,2.555-11.401C242.657,477.556,246.167,481.434,247.626,486.976z"/>
<linearGradient id="SVGID_25_" gradientUnits="userSpaceOnUse" x1="285.2817" y1="469.1445" x2="285.4855" y2="451.7595">
	<stop  offset="0" style="stop-color:#DA1C5C"/>
	<stop  offset="0" style="stop-color:#E82027"/>
	<stop  offset="1" style="stop-color:#C12126"/>
</linearGradient>
<path fill="url(#SVGID_25_)" d="M285.429,469.016c-4.205,0-7.375-5.32-7.375-12.375s3.17-12.375,7.375-12.375
	s7.375,5.32,7.375,12.375S289.633,469.016,285.429,469.016z"/>
<linearGradient id="SVGID_26_" gradientUnits="userSpaceOnUse" x1="285.4287" y1="445.8496" x2="285.4287" y2="463.8496">
	<stop  offset="0" style="stop-color:#DA1C5C"/>
	<stop  offset="0" style="stop-color:#FAA85F"/>
	<stop  offset="1" style="stop-color:#AF4119"/>
</linearGradient>
<ellipse fill="url(#SVGID_26_)" cx="285.429" cy="456.641" rx="5.375" ry="10.375"/>
<linearGradient id="SVGID_27_" gradientUnits="userSpaceOnUse" x1="242.2827" y1="440.7695" x2="242.4865" y2="423.3845">
	<stop  offset="0" style="stop-color:#DA1C5C"/>
	<stop  offset="0" style="stop-color:#E82027"/>
	<stop  offset="1" style="stop-color:#C12126"/>
</linearGradient>
<path fill="url(#SVGID_27_)" d="M242.429,440.641c-4.205,0-7.375-5.32-7.375-12.375s3.17-12.375,7.375-12.375
	s7.375,5.32,7.375,12.375S246.633,440.641,242.429,440.641z"/>
<linearGradient id="SVGID_28_" gradientUnits="userSpaceOnUse" x1="242.4287" y1="417.4746" x2="242.4287" y2="435.4746">
	<stop  offset="0" style="stop-color:#DA1C5C"/>
	<stop  offset="0" style="stop-color:#FAA85F"/>
	<stop  offset="1" style="stop-color:#AF4119"/>
</linearGradient>
<ellipse fill="url(#SVGID_28_)" cx="242.429" cy="428.266" rx="5.375" ry="10.375"/>
<linearGradient id="SVGID_29_" gradientUnits="userSpaceOnUse" x1="343.0313" y1="398.1445" x2="343.235" y2="380.7598">
	<stop  offset="0" style="stop-color:#DA1C5C"/>
	<stop  offset="0" style="stop-color:#E82027"/>
	<stop  offset="1" style="stop-color:#C12126"/>
</linearGradient>
<path fill="url(#SVGID_29_)" d="M343.179,398.016c-4.205,0-7.375-5.32-7.375-12.375s3.17-12.375,7.375-12.375
	s7.375,5.32,7.375,12.375S347.384,398.016,343.179,398.016z"/>
<linearGradient id="SVGID_30_" gradientUnits="userSpaceOnUse" x1="343.1787" y1="374.8496" x2="343.1787" y2="392.8496">
	<stop  offset="0" style="stop-color:#DA1C5C"/>
	<stop  offset="0" style="stop-color:#FAA85F"/>
	<stop  offset="1" style="stop-color:#AF4119"/>
</linearGradient>
<ellipse fill="url(#SVGID_30_)" cx="343.179" cy="385.641" rx="5.375" ry="10.375"/>
<linearGradient id="SVGID_31_" gradientUnits="userSpaceOnUse" x1="371.4131" y1="436.2412" x2="371.6168" y2="418.8568" gradientTransform="matrix(0.9724 0.2334 -0.2334 0.9724 90.5666 -65.4153)">
	<stop  offset="0" style="stop-color:#DA1C5C"/>
	<stop  offset="0" style="stop-color:#E82027"/>
	<stop  offset="1" style="stop-color:#C12126"/>
</linearGradient>
<path fill="url(#SVGID_31_)" d="M350.083,445.383c-4.088-0.981-5.93-6.895-4.283-13.755c1.646-6.86,5.971-11.293,10.059-10.312
	c4.088,0.98,5.93,6.895,4.283,13.754C358.496,441.93,354.171,446.363,350.083,445.383z"/>
<linearGradient id="SVGID_32_" gradientUnits="userSpaceOnUse" x1="371.5605" y1="412.9473" x2="371.5605" y2="430.9464" gradientTransform="matrix(0.9724 0.2334 -0.2334 0.9724 90.5666 -65.4153)">
	<stop  offset="0" style="stop-color:#DA1C5C"/>
	<stop  offset="0" style="stop-color:#FAA85F"/>
	<stop  offset="1" style="stop-color:#AF4119"/>
</linearGradient>
<path fill="url(#SVGID_32_)" d="M358.197,434.604c-1.337,5.572-4.761,9.527-7.647,8.834s-4.143-5.771-2.806-11.343
	s4.761-9.526,7.647-8.834S359.534,429.031,358.197,434.604z"/>
<linearGradient id="SVGID_33_" gradientUnits="userSpaceOnUse" x1="341.6436" y1="489.8555" x2="341.8473" y2="472.4701" gradientTransform="matrix(0.983 0.1835 -0.1835 0.983 78.2931 -47.6465)">
	<stop  offset="0" style="stop-color:#DA1C5C"/>
	<stop  offset="0" style="stop-color:#E82027"/>
	<stop  offset="1" style="stop-color:#C12126"/>
</linearGradient>
<path fill="url(#SVGID_33_)" d="M324.408,496.473c-4.133-0.771-6.273-6.583-4.979-13.519c1.294-6.935,5.388-11.583,9.521-10.812
	s6.273,6.583,4.979,13.519C332.635,492.596,328.541,497.244,324.408,496.473z"/>
<linearGradient id="SVGID_34_" gradientUnits="userSpaceOnUse" x1="341.791" y1="466.5605" x2="341.791" y2="484.5605" gradientTransform="matrix(0.983 0.1835 -0.1835 0.983 78.2931 -47.6465)">
	<stop  offset="0" style="stop-color:#DA1C5C"/>
	<stop  offset="0" style="stop-color:#FAA85F"/>
	<stop  offset="1" style="stop-color:#AF4119"/>
</linearGradient>
<path fill="url(#SVGID_34_)" d="M331.963,485.294c-1.052,5.633-4.27,9.757-7.188,9.213c-2.918-0.545-4.432-5.552-3.381-11.186
	c1.052-5.633,4.27-9.757,7.188-9.212C331.5,474.653,333.014,479.661,331.963,485.294z"/>
<linearGradient id="SVGID_35_" gradientUnits="userSpaceOnUse" x1="209.1333" y1="529.1279" x2="232.7397" y2="529.1279">
	<stop  offset="0" style="stop-color:#603913"/>
	<stop  offset="0.6485" style="stop-color:#3C1E00"/>
	<stop  offset="1" style="stop-color:#603913"/>
</linearGradient>
<path fill="url(#SVGID_35_)" d="M232.737,533.721c0.132,6.929-5.172,8.095-11.259,8.073c-12.833-0.047-16.718-17.774-6.583-24.236
	c5.603-3.572,4.549,2.497,7.503,5.242C226.792,526.885,232.579,525.5,232.737,533.721z"/>
<linearGradient id="SVGID_36_" gradientUnits="userSpaceOnUse" x1="211.9741" y1="533.5938" x2="225.5596" y2="533.5938">
	<stop  offset="0" style="stop-color:#FFFFFF"/>
	<stop  offset="0" style="stop-color:#FFFFFF;stop-opacity:0.4"/>
	<stop  offset="1" style="stop-color:#FFFFFF;stop-opacity:0.15"/>
</linearGradient>
<path fill="url(#SVGID_36_)" d="M212.879,528.846c2.519,0.234,6.313,4.073,8.563,5.596c1.636,1.106,3.446,1.362,4.617,2.732
	C220.634,540.558,210.306,536.229,212.879,528.846z"/>
<linearGradient id="SVGID_37_" gradientUnits="userSpaceOnUse" x1="304.0322" y1="418.5254" x2="304.236" y2="401.1403">
	<stop  offset="0" style="stop-color:#DA1C5C"/>
	<stop  offset="0" style="stop-color:#E82027"/>
	<stop  offset="1" style="stop-color:#C12126"/>
</linearGradient>
<path fill="url(#SVGID_37_)" d="M304.179,418.396c-4.205,0-7.375-5.32-7.375-12.375s3.17-12.375,7.375-12.375
	c4.204,0,7.375,5.32,7.375,12.375S308.383,418.396,304.179,418.396z"/>
<linearGradient id="SVGID_38_" gradientUnits="userSpaceOnUse" x1="304.1782" y1="395.23" x2="304.1782" y2="413.2304">
	<stop  offset="0" style="stop-color:#DA1C5C"/>
	<stop  offset="0" style="stop-color:#FAA85F"/>
	<stop  offset="1" style="stop-color:#AF4119"/>
</linearGradient>
<ellipse fill="url(#SVGID_38_)" cx="304.179" cy="406.021" rx="5.375" ry="10.375"/>
<linearGradient id="SVGID_39_" gradientUnits="userSpaceOnUse" x1="189.4644" y1="482.5879" x2="400.2441" y2="482.5879">
	<stop  offset="0" style="stop-color:#603913"/>
	<stop  offset="0.6485" style="stop-color:#3C1E00"/>
	<stop  offset="1" style="stop-color:#603913"/>
</linearGradient>
<path fill="url(#SVGID_39_)" d="M284.804,560.266c10.027,0.046,17.442-7.021,24.224-13.391c8.028-7.541,16.857-14.822,25.867-21.395
	c7.795-5.687,17.229-9.873,24.225-16.489c7.271-6.876,12.174-16.774,19.494-23.686c-0.204,0.174-0.438,0.27-0.702,0.285
	c7.198-13.338,6.823-28.763,11.318-43.218c2.985-9.598,9.746-19.029,10.916-28.915c1.027-8.681-6.175-11.701-13.344-7.705
	c-6.268,3.493-12.667,9.694-18.653,13.854c-7.585,5.271-12.133,9.412-21.668,9.658c-8.243,0.214-18.22-1.701-24.987,4.168
	c-6.669,5.784-4.737,16.949-14.671,18.832c-8.575,1.627-12.332-10.003-21.401-12.24c-11.376-2.807-19.361,0.859-23.626,11.296
	c-3.73,9.126-4.609,14.664-15.197,15.854c-9.503,1.068-15.944-1.588-24.867-2.244c-6.397-0.471-9.157,2.873-14.919,2.252
	c-4.617-0.496-12.411-6.195-16.099-1.676c-3.378,4.139,1.026,12.641,2.359,16.433c2.159,6.142,2.732,14.918,6.724,20.518
	c3.679,5.159,10.963,8.53,15.577,12.642c13.521,12.048,13.735,31.336,34.157,35.185c8.305,1.564,14.418,2.614,21.941,6.696
	c5.568,3.022,9.384,5.608,16,3.285"/>
<g>
	<path fill="#3A1C00" d="M281.371,445.782c9.069,2.237,12.826,13.866,21.401,12.241c4.819-0.914,6.845-4.014,8.415-7.623
		c-1.146,0.87-2.557,1.523-4.364,1.865c-8.575,1.627-12.332-10.003-21.401-12.24c-10.678-2.635-18.368,0.436-22.799,9.453
		C267.147,445.029,273.43,443.823,281.371,445.782z"/>
	<path fill="#3A1C00" d="M202.761,472.941c5.763,0.62,8.522-2.725,14.919-2.253c8.922,0.657,15.364,3.313,24.867,2.244
		c7.451-0.838,10.093-3.831,12.305-8.71c-1.882,1.525-4.435,2.523-8.254,2.953c-9.503,1.068-15.944-1.588-24.867-2.244
		c-6.397-0.471-9.157,2.873-14.919,2.252c-4.617-0.496-12.411-6.195-16.099-1.676c-0.91,1.115-1.243,2.551-1.236,4.12
		C193.498,468.922,199.118,472.549,202.761,472.941z"/>
	<path fill="#3A1C00" d="M386.802,405.753c-6.268,3.493-12.667,9.694-18.653,13.854c-7.585,5.271-12.133,9.412-21.668,9.658
		c-8.243,0.214-18.22-1.701-24.987,4.168c-1.839,1.594-3.022,3.598-3.981,5.703c6.766-5.799,16.702-3.901,24.918-4.113
		c9.535-0.248,14.083-4.387,21.668-9.659c5.986-4.161,12.386-10.36,18.653-13.854c7.169-3.996,14.371-0.977,13.344,7.705
		c-1.17,9.887-7.931,19.318-10.916,28.914c-4.261,13.703-4.157,28.275-10.266,41.116c1.176-1.384,2.398-2.71,3.7-3.939
		c-0.204,0.174-0.438,0.27-0.702,0.285c7.198-13.338,6.823-28.763,11.318-43.218c2.985-9.598,9.746-19.029,10.916-28.915
		C401.173,404.777,393.971,401.757,386.802,405.753z"/>
</g>
<linearGradient id="SVGID_40_" gradientUnits="userSpaceOnUse" x1="215.4282" y1="514.1709" x2="287.8041" y2="514.1709">
	<stop  offset="0" style="stop-color:#FFFFFF"/>
	<stop  offset="0" style="stop-color:#FFFFFF;stop-opacity:0.4"/>
	<stop  offset="1" style="stop-color:#FFFFFF;stop-opacity:0.15"/>
</linearGradient>
<path fill="url(#SVGID_40_)" d="M230.854,513.648c-5.088-6.526-11.704-13.309-13.791-21.29c-2.957-11.307,4.909-12.387,13.333-5.457
	c5.118,4.211,7.25,9.723,13.624,13.104c5.892,3.127,12.231,6.014,18.602,8.177c8.52,2.893,23.255,3.6,28.19,12.015
	c1.835,3.13,3.131,13.146,2.602,16.42c-2.317,14.322-24.391,8.565-32.203,4.51C249.057,534.817,239.177,524.327,230.854,513.648z"/>
<radialGradient id="SVGID_41_" cx="266.0186" cy="462.3984" r="27.1189" fx="259.7266" fy="461.2318" gradientUnits="userSpaceOnUse">
	<stop  offset="0" style="stop-color:#DA1C5C"/>
	<stop  offset="0" style="stop-color:#FFFFFF;stop-opacity:0.4"/>
	<stop  offset="1" style="stop-color:#FFFFFF;stop-opacity:0.14"/>
</radialGradient>
<path fill="url(#SVGID_41_)" d="M258.804,472.266c5.928-6.896,4.452-19.271,13.858-22.281c5.626-1.801,21.356,5.646,18.149,13.541
	c-2.099,5.166-11.146,0.085-15.674,0.724c-5.822,0.821-8.482,7.187-14.333,8.017H258.804z"/>
<radialGradient id="SVGID_42_" cx="348.1592" cy="438.2148" r="37.6676" fx="339.4048" fy="436.6774" gradientUnits="userSpaceOnUse">
	<stop  offset="0" style="stop-color:#DA1C5C"/>
	<stop  offset="0" style="stop-color:#FFFFFF;stop-opacity:0.4"/>
	<stop  offset="1" style="stop-color:#FFFFFF;stop-opacity:0.14"/>
</radialGradient>
<path fill="url(#SVGID_42_)" d="M338.471,443.933c14.836,0.003,21.038-6.151,30.099-16.701c3.854-4.487,10.73-11.384,16.901-5.632
	c11.877,11.07-11.684,25.071-20.483,26.314c-10.017,1.415-18.421-0.157-27.517-2.981L338.471,443.933z"/>
<linearGradient id="SVGID_43_" gradientUnits="userSpaceOnUse" x1="309.457" y1="533.2754" x2="337.0713" y2="533.2754">
	<stop  offset="0" style="stop-color:#603913"/>
	<stop  offset="0.6485" style="stop-color:#3C1E00"/>
	<stop  offset="1" style="stop-color:#603913"/>
</linearGradient>
<path fill="url(#SVGID_43_)" d="M309.895,552.767c-1.959-7.663,3.024-10.113,7.725-14.816c5.994-5.999,8.471-12.607,8.859-21.373
	c0.16-3.617,0.001-8.339-0.016-11.384c0.082,15.291,16.563,33.392,8.281,48.766C329.66,563.398,312.933,564.646,309.895,552.767z"/>
<linearGradient id="SVGID_44_" gradientUnits="userSpaceOnUse" x1="314.2354" y1="552.3477" x2="325.8037" y2="552.3477">
	<stop  offset="0" style="stop-color:#FFFFFF"/>
	<stop  offset="0" style="stop-color:#FFFFFF;stop-opacity:0.4"/>
	<stop  offset="1" style="stop-color:#FFFFFF;stop-opacity:0.15"/>
</linearGradient>
<path fill="url(#SVGID_44_)" d="M324.471,556.6c-9.726,7.862-14.014-11.369-4.818-10.357c0.41,1.56-0.296,5.727,0.551,6.957
	c1.131,1.642,4.645,0.925,5.934,2.4L324.471,556.6z"/>
<g>
	<g>
		<path fill="none" stroke="#7E8C45" stroke-miterlimit="10" d="M327.804,264.433"/>
	</g>
</g>
<g>
	<g>
		<path fill="#A7A9AC" d="M200.782,288.787c-0.528,1.385-1.049,2.757-1.561,4.09c-0.047,1.276-1.545,3.667-3.786,6.161
			c-2.228,2.518-5.073,5.158-8.124,8.03c-0.746,0.707-1.589,1.495-2.298,2.202c-0.623,0.624-1.281,1.268-1.969,1.913
			c-1.36,1.28-2.75,2.531-4.175,3.744c-2.48,2.126-5.081,4.124-7.71,6.059c-2.325,5.069-4.106,10.561-5.292,16.493
			c2.08-0.722,4.223-1.461,6.436-2.245c6.745-2.388,14.069-5.329,21.182-9.218l10.005-5.594c3.403-1.951,6.986-4.074,10.653-7.072
			c1.835-1.517,3.671-3.222,5.488-5.491c0.507-0.665,0.983-1.255,1.401-1.935l0.311-0.493l0.219-0.326l0.404-0.592l1.551-2.301
			c2.003-2.995,3.833-5.758,5.566-8.205c0.864-1.22,1.7-2.354,2.492-3.363l0.585-0.73l0.071-0.087
			c0.015-0.014,0.016-0.006,0.024-0.01c0.013-0.003,0.024-0.005,0.042-0.013c0.001,0.031,0.131-0.125,0.234-0.243
			c0.416-0.473,0.821-0.923,1.205-1.326l0.563-0.583c0.157-0.146,0.399-0.406,0.386-0.329c0.08,0.002,0.15,0.009,0.22,0.025
			c0.136,0.029,0.247,0.079,0.336,0.14c0.37,0.271,0.318,0.579,0.316,0.56l0.335,0.089l0.015,0.004
			c0.843,0.242,1.75,0.495,2.695,0.752c3.234,0.878,6.98,1.799,10.666,2.435c2.165,0.374,4.308,0.648,6.311,0.759
			c3.026,0.207,5.657,0.233,8.045,0.205c2.383-0.033,4.499-0.131,6.36-0.272c1.859-0.141,3.456-0.329,4.836-0.564
			c1.392-0.221,2.514-0.564,3.757-0.743c2.469-0.404,4.771-0.342,6.649-1.566c0.008-0.005,0.015-0.012,0.022-0.018
			c0.2-0.131,0.391-0.283,0.577-0.446c0.061-0.052,0.118-0.108,0.176-0.164c0.133-0.128,0.261-0.265,0.384-0.41
			c0.06-0.07,0.122-0.136,0.179-0.21c0.147-0.193,0.284-0.398,0.41-0.618c0.067-0.117,0.124-0.245,0.185-0.369
			c0.06-0.126,0.118-0.254,0.17-0.387c0.036-0.09,0.083-0.168,0.115-0.262c0.451-1.31,0.526-2.994-0.039-4.915
			c-0.29-1.028-0.815-2.134-1.496-3.239c0.049-0.013,0.098-0.029,0.146-0.043c0.213-0.062,0.425-0.138,0.634-0.227
			c0.118-0.05,0.234-0.112,0.352-0.171c0.113-0.058,0.226-0.118,0.338-0.184c0.129-0.076,0.257-0.154,0.384-0.241
			c0.082-0.057,0.162-0.122,0.243-0.184c0.256-0.194,0.506-0.414,0.749-0.659c0.045-0.046,0.092-0.084,0.137-0.132
			c-0.001-0.001-0.002-0.002-0.004-0.002c0.567-0.6,1.096-1.326,1.555-2.228c0.536-1.023,0.931-2.271,1.204-3.649
			c-2.775-0.089-5.575-0.136-8.399-0.136C251.241,270.25,222.184,275.9,200.782,288.787z M295.89,270.557
			c-0.691,1.162-1.306,2.308-1.794,3.44c-0.617,1.466-1.097,2.928-1.281,4.391c0,0.002,0,0.004,0,0.006
			c-0.043,0.346-0.065,0.691-0.073,1.037c-0.002,0.098-0.004,0.196-0.003,0.294c0.004,0.359,0.021,0.718,0.07,1.077
			c0.303,2.25,1.709,4.301,4.354,5.699c2.616,1.405,6.388,2.082,10.595,1.842c2.477-0.132,5.094-0.574,7.752-1.265
			c1.862-0.484,3.744-1.087,5.611-1.807c2.557-0.98,5.092-2.171,7.557-3.494c1.91-1.025,3.781-2.127,5.58-3.285
			c0.117-0.074,0.242-0.159,0.362-0.238c0.127-0.081,0.257-0.159,0.383-0.24c0.574-0.366,1.204-0.795,1.868-1.261
			C324.32,273.289,310.5,271.277,295.89,270.557z"/>
	</g>
</g>
<g>
	<g>
		<g>
			<path fill="#8DC63F" d="M425.387,225.921c0.01,0.02-5.335,0.888-13.4,2.827c-8.062,1.933-18.783,5.094-29.334,9.563
				c-10.588,4.416-20.905,10.161-29.246,15.683c-4.189,2.739-7.896,5.417-11.113,7.687c-2.787,2.074-5.489,4.13-7.541,5.441
				c-4.122,2.652-8.599,5.039-13.138,6.779c-4.53,1.747-9.15,2.848-13.362,3.072c-4.207,0.24-7.979-0.437-10.595-1.842
				c-2.644-1.398-4.051-3.449-4.354-5.699c-0.307-2.269,0.332-4.533,1.288-6.805c0.982-2.277,2.34-4.578,4.185-7.036
				c1.847-2.454,4.198-5.069,7.173-7.832c2.978-2.753,6.553-5.648,10.927-8.466c2.21-1.401,5.428-3.212,10.055-5.289
				c4.236-1.802,9.324-3.74,14.957-5.43c5.627-1.702,11.785-3.184,18.111-4.278c6.326-1.1,12.813-1.812,19.093-2.135
				c12.575-0.674,24.236,0.276,32.638,1.424C420.142,224.737,425.38,225.943,425.387,225.921z"/>
			<path fill="#8DC63F" d="M425.387,225.921c0.01,0.02-5.335,0.888-13.4,2.827c-8.062,1.933-18.783,5.094-29.334,9.563
				c-10.588,4.416-20.905,10.161-29.246,15.683c-4.189,2.739-7.896,5.417-11.113,7.687c-2.787,2.074-5.489,4.13-7.541,5.441
				c-4.122,2.652-8.599,5.039-13.138,6.779c-4.53,1.747-9.15,2.848-13.362,3.072c-4.207,0.24-7.979-0.437-10.595-1.842
				c-2.644-1.398-4.051-3.449-4.354-5.699c-0.307-2.269,0.332-4.533,1.288-6.805c0.982-2.277,2.34-4.578,4.185-7.036
				c1.847-2.454,4.198-5.069,7.173-7.832c2.978-2.753,6.553-5.648,10.927-8.466c2.21-1.401,5.428-3.212,10.055-5.289
				c4.236-1.802,9.324-3.74,14.957-5.43c5.627-1.702,11.785-3.184,18.111-4.278c6.326-1.1,12.813-1.812,19.093-2.135
				c12.575-0.674,24.236,0.276,32.638,1.424C420.142,224.737,425.38,225.943,425.387,225.921z"/>
			<path fill="#8DC63F" d="M425.387,225.921c0.01,0.02-5.335,0.888-13.4,2.827c-8.062,1.933-18.783,5.094-29.334,9.563
				c-10.588,4.416-20.905,10.161-29.246,15.683c-4.189,2.739-7.896,5.417-11.113,7.687c-2.787,2.074-5.489,4.13-7.541,5.441
				c-4.122,2.652-8.599,5.039-13.138,6.779c-4.53,1.747-9.15,2.848-13.362,3.072c-4.207,0.24-7.979-0.437-10.595-1.842
				c-2.644-1.398-4.051-3.449-4.354-5.699c-0.307-2.269,0.332-4.533,1.288-6.805c0.982-2.277,2.34-4.578,4.185-7.036
				c1.847-2.454,4.198-5.069,7.173-7.832c2.978-2.753,6.553-5.648,10.927-8.466c2.21-1.401,5.428-3.212,10.055-5.289
				c4.236-1.802,9.324-3.74,14.957-5.43c5.627-1.702,11.785-3.184,18.111-4.278c6.326-1.1,12.813-1.812,19.093-2.135
				c12.575-0.674,24.236,0.276,32.638,1.424C420.142,224.737,425.38,225.943,425.387,225.921z"/>
			<g>
				<polygon fill="#9AAA54" points="426.269,225.939 426.304,225.933 426.211,225.914 				"/>
				<path fill="#9AAA54" d="M321.619,254.117c-4.796,2.033-9.301,3.245-13.188,3.517c-3.891,0.283-7.115-0.379-9.417-1.73
					c-1.691,2.374-2.943,4.616-3.814,6.826c-0.851,2.204-1.362,4.396-0.991,6.557c0.38,2.241,1.851,4.239,4.503,5.572
					c2.628,1.34,6.363,1.949,10.528,1.669c4.168-0.266,8.739-1.388,13.23-3.141c4.497-1.745,8.941-4.124,13.026-6.741
					c1.875-1.194,4.296-3.01,6.809-4.867l0.965-0.702l1.257-0.867l2.447-1.725c1.661-1.167,3.436-2.387,5.312-3.636
					c7.487-5.017,16.717-10.4,26.481-14.779c9.732-4.422,19.947-7.833,28.473-10.099c8.523-2.282,15.299-3.525,18.146-4.05
					c-3.38,0.019-10.802,0.084-20.235,0.969c-9.429,0.868-20.856,2.676-32.095,5.742c-11.254,3.009-22.255,7.286-31.279,11.488
					c-4.508,2.105-8.591,4.077-11.971,5.899C326.418,251.817,323.644,253.268,321.619,254.117z"/>
			</g>
			<path fill="#C8DC64" d="M315.322,242.17c1.907-1.226,4.578-2.746,8.086-4.486c1.746-0.86,3.765-1.808,5.986-2.712
				c1.846-0.717,4.098-1.608,6.369-2.405c9.145-3.257,20.104-5.976,30.964-7.376c10.865-1.447,21.564-1.607,30.349-1.11
				c8.796,0.483,15.706,1.523,19.345,2.117c2.86-0.116,3.046-0.166,8.966-0.276c-0.007,0.022-5.245-1.184-13.656-2.334
				c-8.401-1.148-20.063-2.098-32.638-1.424c-6.279,0.323-12.767,1.035-19.093,2.135c-6.326,1.094-12.484,2.576-18.111,4.278
				c-5.633,1.69-10.721,3.627-14.957,5.43c-4.627,2.076-7.845,3.887-10.055,5.289c-5.313,3.427-9.457,6.955-12.759,10.229
				c-3.297,3.29-5.7,6.319-7.455,9.167c1.925-2.432,4.337-5.042,7.407-7.845C307.14,248.052,310.837,245.076,315.322,242.17z"/>
			<path fill="#7E8C45" d="M422.532,225.353l2.179,0.638c0.007,0.024-5.589,0.481-14.116,1.854
				c-8.521,1.369-19.939,3.826-31.358,7.755c-11.45,3.859-22.798,9.233-32.042,14.542c-2.34,1.33-4.463,2.6-6.611,3.904
				l-1.514,0.911l-1.375,0.861l-2.655,1.718c-3.44,2.263-6.432,4.225-8.648,5.42c-6.854,3.752-14.002,6.144-20.048,6.37
				c-3.011,0.128-5.707-0.271-7.839-1.117c-2.14-0.839-3.693-2.117-4.643-3.602c-0.5,1.606-0.782,3.217-0.557,4.825
				c0.303,2.25,1.709,4.301,4.354,5.699c2.616,1.405,6.387,2.082,10.595,1.842c4.212-0.225,8.831-1.325,13.362-3.072
				c4.539-1.74,9.016-4.127,13.138-6.779c2.052-1.311,4.754-3.367,7.54-5.44c3.218-2.271,6.924-4.948,11.113-7.687
				c8.341-5.522,18.658-11.268,29.246-15.683c10.551-4.469,21.272-7.63,29.334-9.563c8.065-1.939,13.41-2.807,13.4-2.827
				L422.532,225.353z"/>
		</g>
	</g>
</g>
<g>
	<g>
		<g>
			<path fill="#8DC63F" d="M330.807,239.734c-0.006,0.009-0.246-1.028-1.059-2.618c-0.808-1.592-2.217-3.718-4.238-6.021
				c-2.014-2.305-4.621-4.806-7.651-7.186c-0.757-0.595-1.54-1.181-2.345-1.753l-1.223-0.846l-0.622-0.413
				c-0.101-0.064-0.218-0.146-0.305-0.194l-0.233-0.112c-1.24-0.59-2.422-1.004-3.504-1.229c-2.166-0.45-3.939-0.148-5.081,0.952
				c-0.568,0.543-0.963,1.327-1.082,2.18c-0.124,0.856,0.039,1.725,0.277,2.396c0.5,1.37,1.187,2.022,1.62,2.296
				c0.224,0.14,0.402,0.193,0.523,0.213l0.044,0.006l0.019,0.002c0.003,0.005,0.005-0.009,0.009,0.011l0.009,0.115l0.063,0.903
				c0.034,0.59,0.053,1.155,0.052,1.691c-0.002,1.068-0.04,2.198-0.145,3.471l-0.095,0.989l-0.138,1.166
				c-0.129,0.909-0.25,1.812-0.48,2.683l-0.17,0.651l-0.082,0.293l-0.056,0.164l-0.23,0.654l-0.492,1.303
				c-0.341,0.865-0.712,1.726-1.109,2.571c-1.584,3.379-3.648,6.535-6.007,8.941c-2.352,2.417-4.974,4.051-7.458,4.685
				c-2.492,0.649-4.813,0.32-6.814-0.766c-2.011-1.09-3.558-2.777-4.851-4.683c-1.286-1.919-2.325-4.059-3.126-6.445
				c-0.796-2.393-1.349-5.06-1.526-8.202c-0.043-0.785-0.063-1.598-0.054-2.443l0.034-1.291l0.034-0.663l0.01-0.167
				c0.004-0.055-0.01-0.027-0.017-0.039l-0.042-0.015c-0.232,0.431-0.247-1.252-0.261-2.901c0.001-0.426,0.015-0.919,0.043-1.477
				l0.053-0.883l0.072-1.779c0.118-2.612,0.323-5.532,0.8-8.556c0.477-3.019,1.227-6.138,2.415-9.029
				c1.183-2.898,2.773-5.555,4.816-7.829c2.036-2.262,4.56-4.249,7.668-5.546c3.091-1.308,6.6-1.771,9.939-1.345
				c6.705,0.801,12.995,4.903,17.813,9.883c2.416,2.482,4.476,5.14,6.187,7.72l0.316,0.483l0.24,0.405l0.447,0.787l0.85,1.565
				c0.545,1.039,1.051,2.068,1.52,3.084c1.873,4.061,3.162,7.901,3.949,11.219c0.795,3.317,1.051,6.11,1,8.021
				C331.09,238.728,330.796,239.731,330.807,239.734z"/>
			<path fill="#8DC63F" d="M330.807,239.734c-0.006,0.009-0.246-1.028-1.059-2.618c-0.808-1.592-2.217-3.718-4.238-6.021
				c-2.014-2.305-4.621-4.806-7.651-7.186c-0.757-0.595-1.54-1.181-2.345-1.753l-1.223-0.846l-0.622-0.413
				c-0.101-0.064-0.218-0.146-0.305-0.194l-0.233-0.112c-1.24-0.59-2.422-1.004-3.504-1.229c-2.166-0.45-3.939-0.148-5.081,0.952
				c-0.568,0.543-0.963,1.327-1.082,2.18c-0.124,0.856,0.039,1.725,0.277,2.396c0.5,1.37,1.187,2.022,1.62,2.296
				c0.224,0.14,0.402,0.193,0.523,0.213l0.044,0.006l0.019,0.002c0.003,0.005,0.005-0.009,0.009,0.011l0.009,0.115l0.063,0.903
				c0.034,0.59,0.053,1.155,0.052,1.691c-0.002,1.068-0.04,2.198-0.145,3.471l-0.095,0.989l-0.138,1.166
				c-0.129,0.909-0.25,1.812-0.48,2.683l-0.17,0.651l-0.082,0.293l-0.056,0.164l-0.23,0.654l-0.492,1.303
				c-0.341,0.865-0.712,1.726-1.109,2.571c-1.584,3.379-3.648,6.535-6.007,8.941c-2.352,2.417-4.974,4.051-7.458,4.685
				c-2.492,0.649-4.813,0.32-6.814-0.766c-2.011-1.09-3.558-2.777-4.851-4.683c-1.286-1.919-2.325-4.059-3.126-6.445
				c-0.796-2.393-1.349-5.06-1.526-8.202c-0.043-0.785-0.063-1.598-0.054-2.443l0.034-1.291l0.034-0.663l0.01-0.167
				c0.004-0.055-0.01-0.027-0.017-0.039l-0.042-0.015c-0.232,0.431-0.247-1.252-0.261-2.901c0.001-0.426,0.015-0.919,0.043-1.477
				l0.053-0.883l0.072-1.779c0.118-2.612,0.323-5.532,0.8-8.556c0.477-3.019,1.227-6.138,2.415-9.029
				c1.183-2.898,2.773-5.555,4.816-7.829c2.036-2.262,4.56-4.249,7.668-5.546c3.091-1.308,6.6-1.771,9.939-1.345
				c6.705,0.801,12.995,4.903,17.813,9.883c2.416,2.482,4.476,5.14,6.187,7.72l0.316,0.483l0.24,0.405l0.447,0.787l0.85,1.565
				c0.545,1.039,1.051,2.068,1.52,3.084c1.873,4.061,3.162,7.901,3.949,11.219c0.795,3.317,1.051,6.11,1,8.021
				C331.09,238.728,330.796,239.731,330.807,239.734z"/>
			<path fill="#8DC63F" d="M330.807,239.734c-0.006,0.009-0.246-1.028-1.059-2.618c-0.808-1.592-2.217-3.718-4.238-6.021
				c-2.014-2.305-4.621-4.806-7.651-7.186c-0.757-0.595-1.54-1.181-2.345-1.753l-1.223-0.846l-0.622-0.413
				c-0.101-0.064-0.218-0.146-0.305-0.194l-0.233-0.112c-1.24-0.59-2.422-1.004-3.504-1.229c-2.166-0.45-3.939-0.148-5.081,0.952
				c-0.568,0.543-0.963,1.327-1.082,2.18c-0.124,0.856,0.039,1.725,0.277,2.396c0.5,1.37,1.187,2.022,1.62,2.296
				c0.224,0.14,0.402,0.193,0.523,0.213l0.044,0.006l0.019,0.002c0.003,0.005,0.005-0.009,0.009,0.011l0.009,0.115l0.063,0.903
				c0.034,0.59,0.053,1.155,0.052,1.691c-0.002,1.068-0.04,2.198-0.145,3.471l-0.095,0.989l-0.138,1.166
				c-0.129,0.909-0.25,1.812-0.48,2.683l-0.17,0.651l-0.082,0.293l-0.056,0.164l-0.23,0.654l-0.492,1.303
				c-0.341,0.865-0.712,1.726-1.109,2.571c-1.584,3.379-3.648,6.535-6.007,8.941c-2.352,2.417-4.974,4.051-7.458,4.685
				c-2.492,0.649-4.813,0.32-6.814-0.766c-2.011-1.09-3.558-2.777-4.851-4.683c-1.286-1.919-2.325-4.059-3.126-6.445
				c-0.796-2.393-1.349-5.06-1.526-8.202c-0.043-0.785-0.063-1.598-0.054-2.443l0.034-1.291l0.034-0.663l0.01-0.167
				c0.004-0.055-0.01-0.027-0.017-0.039l-0.042-0.015c-0.232,0.431-0.247-1.252-0.261-2.901c0.001-0.426,0.015-0.919,0.043-1.477
				l0.053-0.883l0.072-1.779c0.118-2.612,0.323-5.532,0.8-8.556c0.477-3.019,1.227-6.138,2.415-9.029
				c1.183-2.898,2.773-5.555,4.816-7.829c2.036-2.262,4.56-4.249,7.668-5.546c3.091-1.308,6.6-1.771,9.939-1.345
				c6.705,0.801,12.995,4.903,17.813,9.883c2.416,2.482,4.476,5.14,6.187,7.72l0.316,0.483l0.24,0.405l0.447,0.787l0.85,1.565
				c0.545,1.039,1.051,2.068,1.52,3.084c1.873,4.061,3.162,7.901,3.949,11.219c0.795,3.317,1.051,6.11,1,8.021
				C331.09,238.728,330.796,239.731,330.807,239.734z"/>
			<g>
				<polygon fill="#9AAA54" points="330.797,240.406 330.804,240.433 330.823,240.362 				"/>
				<path fill="#9AAA54" d="M287.979,233.1c-0.278,0.952-0.566,1.742-1.02,2.467c-0.444,0.788-0.927,1.625-1.419,2.366
					c-0.988,1.506-2.056,2.827-3.18,3.933c-2.248,2.22-4.724,3.538-7.149,3.992c0.827,2.256,1.872,4.285,3.155,6.09
					c1.286,1.791,2.816,3.359,4.762,4.367c2.021,1.047,4.348,1.333,6.824,0.649c2.47-0.669,5.058-2.325,7.375-4.743
					c2.323-2.407,4.352-5.543,5.914-8.89c0.393-0.837,0.758-1.688,1.096-2.544l0.487-1.288l0.059-0.162l0.088-0.313l0.173-0.643
					c0.123-0.43,0.203-0.869,0.281-1.312c0.161-0.849,0.286-1.901,0.359-2.49c0.08-0.673,0.138-1.306,0.182-1.902
					c0.086-1.193,0.117-2.279,0.115-3.311c-0.001-0.473-0.018-0.981-0.048-1.505l-0.025-0.399c-0.007-0.107-0.019-0.032-0.026-0.057
					l-0.071-0.009c-0.105-0.019-0.261-0.065-0.458-0.181c-0.384-0.229-0.975-0.753-1.479-1.874
					c-0.244-0.553-0.457-1.266-0.479-2.048c-0.027-0.78,0.172-1.586,0.566-2.221c0.797-1.281,2.221-1.888,4.022-1.836
					c0.903,0.025,1.909,0.218,2.99,0.572c1.124,0.406,2.07,0.677,3.788,1.935c3.062,2.109,5.84,4.444,8.156,6.729
					c2.32,2.286,4.178,4.532,5.473,6.504c1.309,1.966,2.022,3.681,2.318,4.76c-0.049-1.287-0.428-3.329-1.377-5.78
					c-0.938-2.455-2.41-5.32-4.365-8.338c-1.956-3.015-4.392-6.201-7.248-9.255c-2.813-2.988-6.023-5.898-9.732-8.138
					c-1.855-1.104-3.848-2.042-5.964-2.513c-2.098-0.481-4.371-0.404-6.279,0.527c-1.933,0.899-3.274,2.621-4.116,4.404
					c-0.857,1.8-1.324,3.689-1.667,5.507c-0.65,3.655-0.836,7.069-1.095,10.056C288.724,229.197,288.435,231.511,287.979,233.1z"/>
			</g>
			<path fill="#C8DC64" d="M274.561,231.876c0.017-0.644,0.071-1.503,0.159-2.566l0.159-1.765c0.055-1.175,0.133-2.4,0.23-3.66
				c0.38-5.024,1.257-10.698,3.453-15.534c1.091-2.418,2.471-4.624,4.183-6.544c1.708-1.913,3.767-3.606,6.274-4.788
				c2.492-1.192,5.358-1.77,8.142-1.649c2.792,0.111,5.512,0.863,8.056,2.025c5.103,2.334,9.478,6.356,12.761,10.398
				c0.826,1.012,1.588,2.031,2.291,3.037c0.352,0.504,0.689,1.004,1.011,1.501l0.472,0.74l0.363,0.635
				c0.95,1.684,1.779,3.334,2.506,4.924c2.915,6.363,4.102,11.754,4.429,14.558c0.419,1.001,0.616,1.545,0.89,2.369
				c0.236,0.829,0.678,1.926,0.869,4.177c-0.011-0.002,0.283-1.006,0.328-2.924c0.051-1.911-0.205-4.704-1-8.021
				c-0.787-3.318-2.076-7.158-3.949-11.219c-0.469-1.016-0.975-2.045-1.52-3.084l-0.85-1.565l-0.447-0.787l-0.24-0.405l-0.316-0.483
				c-1.711-2.58-3.771-5.238-6.187-7.72c-4.818-4.98-11.108-9.082-17.813-9.883c-3.339-0.426-6.848,0.037-9.939,1.345
				c-3.108,1.297-5.633,3.284-7.668,5.546c-2.042,2.273-3.633,4.931-4.816,7.829c-1.188,2.891-1.938,6.01-2.415,9.029
				c-0.477,3.023-0.682,5.943-0.8,8.556l-0.072,1.779l-0.053,0.883c-0.028,0.557-0.042,1.05-0.043,1.477
				c0,1.036,0.026,1.965,0.075,2.59c0.017,0.413,0.077,0.228,0.135,0.294l0.094,0.033c0.031-0.048,0.005,0.161,0.001,0.281
				l-0.021,0.404c-0.101,2.137-0.025,4.089,0.177,5.879c0.411,3.579,1.312,6.529,2.531,9.181c-0.796-2.5-1.359-5.223-1.556-8.412
				c-0.097-1.592-0.099-3.3,0.026-5.139l0.119-1.403l0.038-0.358l0.017-0.162c-0.003-0.012-0.009-0.016-0.013-0.024
				c-0.02-0.03-0.021-0.055-0.037-0.083l-0.034-0.079l-0.013-0.036l-0.001-0.179L274.561,231.876z"/>
			<path fill="#7E8C45" d="M331.109,237.474c-0.199,1.157-0.412,1.75-0.404,1.752c-0.011,0.005-0.186-1.062-0.902-2.78
				c-0.707-1.719-1.982-4.068-3.874-6.675c-1.884-2.609-4.366-5.49-7.323-8.299c-1.446-1.374-3.195-2.912-4.482-3.795
				c-1.391-1.001-2.803-1.879-4.219-2.587c-1.414-0.707-2.834-1.25-4.252-1.532c-1.412-0.276-2.852-0.296-4.166,0.208
				c-1.314,0.486-2.406,1.58-2.949,2.893c-0.561,1.307-0.714,2.684-0.766,3.914c-0.072,2.484,0.224,4.477,0.337,6.077l0.044,0.584
				l0.031,0.918c0.018,0.756,0.026,1.49,0.019,2.199c-0.014,1.417-0.09,2.733-0.258,3.922c-0.062,0.424-0.149,1.04-0.252,1.561
				c-0.095,0.54-0.223,1.067-0.39,1.581l-0.118,0.381l-0.094,0.255l-0.192,0.506l-0.401,1.002c-0.549,1.325-1.16,2.606-1.83,3.818
				c-1.337,2.425-2.922,4.573-4.656,6.263c-1.731,1.694-3.61,2.919-5.466,3.612c-1.861,0.698-3.693,0.866-5.393,0.591
				c1.037,1.236,2.222,2.319,3.649,3.09c2.001,1.085,4.322,1.415,6.814,0.766c2.484-0.634,5.106-2.268,7.458-4.685
				c2.358-2.406,4.423-5.562,6.007-8.941c0.398-0.845,0.768-1.706,1.109-2.571l0.492-1.303l0.231-0.654l0.056-0.164l0.082-0.294
				l0.17-0.652c0.23-0.872,0.352-1.773,0.48-2.683l0.138-1.166l0.095-0.989c0.105-1.272,0.143-2.402,0.145-3.471
				c0.001-0.536-0.018-1.101-0.052-1.691l-0.063-0.904l-0.01-0.115c-0.003-0.02-0.005-0.006-0.008-0.011l-0.019-0.002l-0.044-0.006
				c-0.121-0.02-0.299-0.073-0.523-0.213c-0.433-0.274-1.119-0.926-1.62-2.296c-0.238-0.671-0.401-1.541-0.277-2.396
				c0.119-0.854,0.513-1.637,1.082-2.18c1.142-1.1,2.915-1.401,5.081-0.952c1.082,0.225,2.264,0.64,3.504,1.229l0.233,0.112
				c0.087,0.047,0.204,0.13,0.305,0.194l0.622,0.413l1.223,0.846c0.805,0.572,1.588,1.158,2.345,1.753
				c3.03,2.38,5.638,4.881,7.651,7.186c2.021,2.304,3.431,4.429,4.238,6.021c0.813,1.59,1.053,2.627,1.059,2.618
				C330.799,239.731,331.02,238.96,331.109,237.474z"/>
		</g>
	</g>
</g>
<g>
	<g>
		<g>
			<path fill="#8DC63F" d="M430.494,296.135c0.001-0.005-1.401-0.656-3.821-2.04c-2.412-1.392-5.83-3.577-9.664-6.8
				c-3.834-3.208-8.043-7.49-12.078-12.62c-1.011-1.28-2.014-2.609-3.005-3.979c-0.486-0.676-1.024-1.416-1.531-2.226l-1.405-2.197
				c-1.815-2.858-3.555-5.59-5.344-7.583c-0.888-0.995-1.777-1.778-2.616-2.32c-0.729-0.428-1.464-0.692-2.198-0.84
				c-0.365-0.072-0.74-0.086-1.1-0.078c-0.175,0.011-0.375,0.005-0.494,0.042l-0.772-0.008c-1.136-0.008-2.448,0.042-3.842,0.144
				c-2.804,0.203-5.898,0.614-9.188,1.013c-1.653,0.198-3.36,0.398-5.234,0.538l-1.441,0.09c-0.166,0.003-0.179,0.016-0.198,0.028
				l-0.076,0.033c-0.064,0.025-0.048,0.052-0.171,0.075l-2.296,0.304c-12.125,1.6-22.021,3.224-27.531,3.684
				c-1.38,0.107-2.741,0.203-4.085,0.272l-1.99,0.09l-1.844,0.049l-3.479,0.079l-3.395,0.025c-4.367-0.015-8.126-0.168-11.57-0.427
				c-3.434-0.273-6.557-0.637-9.214-1.396c-2.643-0.753-4.801-1.92-6.051-3.839c-1.242-1.905-1.439-4.408-0.377-7.315
				c1.059-2.885,3.423-6.184,7.136-9.236c3.687-3.063,8.718-5.799,14.305-7.712c1.396-0.482,2.823-0.917,4.271-1.308
				c1.453-0.387,2.867-0.736,4.559-1.05l2.304-0.393l2.228-0.325c1.49-0.196,3.007-0.364,4.541-0.484
				c6.141-0.515,17.229-0.125,30.037,1.378l2.423,0.289l1.023,0.078l0.521,0.068c0.18,0.023,0.367,0.049,0.4,0.063l0.968,0.199
				c1.353,0.26,2.925,0.495,4.59,0.74c3.347,0.497,7.062,1.004,11.104,1.893c2.025,0.451,4.142,0.997,6.385,1.772
				c0.581,0.206,1.095,0.392,1.743,0.649c0.718,0.269,1.338,0.544,1.983,0.839c1.266,0.606,2.508,1.252,3.627,2.075
				c2.242,1.631,4.21,3.605,5.795,5.749c1.483,2.024,2.583,4.079,3.439,6.028c1.698,3.911,2.574,7.433,3.428,10.585l0.605,2.273
				c0.163,0.667,0.386,1.348,0.627,2.092c0.479,1.463,0.975,2.892,1.489,4.28c2.047,5.555,4.449,10.447,6.893,14.424
				c2.434,3.98,4.87,7.041,6.667,9.094C429.379,295.046,430.499,296.134,430.494,296.135z"/>
			<path fill="#8DC63F" d="M430.494,296.135c0.001-0.005-1.401-0.656-3.821-2.04c-2.412-1.392-5.83-3.577-9.664-6.8
				c-3.834-3.208-8.043-7.49-12.078-12.62c-1.011-1.28-2.014-2.609-3.005-3.979c-0.486-0.676-1.024-1.416-1.531-2.226l-1.405-2.197
				c-1.815-2.858-3.555-5.59-5.344-7.583c-0.888-0.995-1.777-1.778-2.616-2.32c-0.729-0.428-1.464-0.692-2.198-0.84
				c-0.365-0.072-0.74-0.086-1.1-0.078c-0.175,0.011-0.375,0.005-0.494,0.042l-0.772-0.008c-1.136-0.008-2.448,0.042-3.842,0.144
				c-2.804,0.203-5.898,0.614-9.188,1.013c-1.653,0.198-3.36,0.398-5.234,0.538l-1.441,0.09c-0.166,0.003-0.179,0.016-0.198,0.028
				l-0.076,0.033c-0.064,0.025-0.048,0.052-0.171,0.075l-2.296,0.304c-12.125,1.6-22.021,3.224-27.531,3.684
				c-1.38,0.107-2.741,0.203-4.085,0.272l-1.99,0.09l-1.844,0.049l-3.479,0.079l-3.395,0.025c-4.367-0.015-8.126-0.168-11.57-0.427
				c-3.434-0.273-6.557-0.637-9.214-1.396c-2.643-0.753-4.801-1.92-6.051-3.839c-1.242-1.905-1.439-4.408-0.377-7.315
				c1.059-2.885,3.423-6.184,7.136-9.236c3.687-3.063,8.718-5.799,14.305-7.712c1.396-0.482,2.823-0.917,4.271-1.308
				c1.453-0.387,2.867-0.736,4.559-1.05l2.304-0.393l2.228-0.325c1.49-0.196,3.007-0.364,4.541-0.484
				c6.141-0.515,17.229-0.125,30.037,1.378l2.423,0.289l1.023,0.078l0.521,0.068c0.18,0.023,0.367,0.049,0.4,0.063l0.968,0.199
				c1.353,0.26,2.925,0.495,4.59,0.74c3.347,0.497,7.062,1.004,11.104,1.893c2.025,0.451,4.142,0.997,6.385,1.772
				c0.581,0.206,1.095,0.392,1.743,0.649c0.718,0.269,1.338,0.544,1.983,0.839c1.266,0.606,2.508,1.252,3.627,2.075
				c2.242,1.631,4.21,3.605,5.795,5.749c1.483,2.024,2.583,4.079,3.439,6.028c1.698,3.911,2.574,7.433,3.428,10.585l0.605,2.273
				c0.163,0.667,0.386,1.348,0.627,2.092c0.479,1.463,0.975,2.892,1.489,4.28c2.047,5.555,4.449,10.447,6.893,14.424
				c2.434,3.98,4.87,7.041,6.667,9.094C429.379,295.046,430.499,296.134,430.494,296.135z"/>
			<path fill="#8DC63F" d="M430.494,296.135c0.001-0.005-1.401-0.656-3.821-2.04c-2.412-1.392-5.83-3.577-9.664-6.8
				c-3.834-3.208-8.043-7.49-12.078-12.62c-1.011-1.28-2.014-2.609-3.005-3.979c-0.486-0.676-1.024-1.416-1.531-2.226l-1.405-2.197
				c-1.815-2.858-3.555-5.59-5.344-7.583c-0.888-0.995-1.777-1.778-2.616-2.32c-0.729-0.428-1.464-0.692-2.198-0.84
				c-0.365-0.072-0.74-0.086-1.1-0.078c-0.175,0.011-0.375,0.005-0.494,0.042l-0.772-0.008c-1.136-0.008-2.448,0.042-3.842,0.144
				c-2.804,0.203-5.898,0.614-9.188,1.013c-1.653,0.198-3.36,0.398-5.234,0.538l-1.441,0.09c-0.166,0.003-0.179,0.016-0.198,0.028
				l-0.076,0.033c-0.064,0.025-0.048,0.052-0.171,0.075l-2.296,0.304c-12.125,1.6-22.021,3.224-27.531,3.684
				c-1.38,0.107-2.741,0.203-4.085,0.272l-1.99,0.09l-1.844,0.049l-3.479,0.079l-3.395,0.025c-4.367-0.015-8.126-0.168-11.57-0.427
				c-3.434-0.273-6.557-0.637-9.214-1.396c-2.643-0.753-4.801-1.92-6.051-3.839c-1.242-1.905-1.439-4.408-0.377-7.315
				c1.059-2.885,3.423-6.184,7.136-9.236c3.687-3.063,8.718-5.799,14.305-7.712c1.396-0.482,2.823-0.917,4.271-1.308
				c1.453-0.387,2.867-0.736,4.559-1.05l2.304-0.393l2.228-0.325c1.49-0.196,3.007-0.364,4.541-0.484
				c6.141-0.515,17.229-0.125,30.037,1.378l2.423,0.289l1.023,0.078l0.521,0.068c0.18,0.023,0.367,0.049,0.4,0.063l0.968,0.199
				c1.353,0.26,2.925,0.495,4.59,0.74c3.347,0.497,7.062,1.004,11.104,1.893c2.025,0.451,4.142,0.997,6.385,1.772
				c0.581,0.206,1.095,0.392,1.743,0.649c0.718,0.269,1.338,0.544,1.983,0.839c1.266,0.606,2.508,1.252,3.627,2.075
				c2.242,1.631,4.21,3.605,5.795,5.749c1.483,2.024,2.583,4.079,3.439,6.028c1.698,3.911,2.574,7.433,3.428,10.585l0.605,2.273
				c0.163,0.667,0.386,1.348,0.627,2.092c0.479,1.463,0.975,2.892,1.489,4.28c2.047,5.555,4.449,10.447,6.893,14.424
				c2.434,3.98,4.87,7.041,6.667,9.094C429.379,295.046,430.499,296.134,430.494,296.135z"/>
			<g>
				<polygon fill="#9AAA54" points="431.322,296.732 431.359,296.75 431.282,296.673 				"/>
				<path fill="#9AAA54" d="M330.382,243.816c-1.505-0.084-2.979-0.184-4.421-0.306c-1.471-0.091-2.836-0.206-4.199-0.324
					c-2.709-0.238-5.266-0.519-7.665-0.819c-4.791-0.614-8.969-1.3-12.197-2.37c-3.394,2.905-5.558,5.99-6.523,8.716
					c-0.971,2.741-0.783,5.117,0.377,6.965c1.217,1.938,3.355,3.143,5.982,3.943c2.643,0.806,5.755,1.228,9.194,1.555
					c3.45,0.313,7.239,0.516,11.651,0.567c2.197,0.036,4.639-0.028,6.917-0.036c1.179-0.019,2.578-0.067,3.901-0.134
					c1.344-0.066,2.708-0.151,4.089-0.259c5.085-0.399,13.931-1.82,24.849-3.281l2.068-0.279l1.052-0.139l0.53-0.07
					c0.145-0.023,0.438-0.048,0.41-0.07c0.039-0.022,0.075-0.05,0.124-0.067l0.07-0.032c0.032-0.011,0.211-0.011,0.305-0.019
					l1.321-0.086c0.865-0.064,1.688-0.143,2.489-0.227l8.897-1.055c2.742-0.3,5.378-0.476,7.358-0.426
					c0.676-0.05,1.331-0.098,2.018,0.062c0.681,0.156,1.346,0.404,2.034,0.805c1.565,0.99,3.271,2.911,4.913,5.264
					c0.827,1.175,1.652,2.452,2.496,3.771c0.854,1.321,1.676,2.665,2.686,4.145c3.727,5.283,7.622,9.901,11.486,13.687
					c3.846,3.787,7.601,6.667,10.739,8.734c3.144,2.07,5.662,3.363,7.158,4.103c-1.603-1.121-4.125-2.978-7.075-5.7
					c-2.943-2.723-6.285-6.342-9.496-10.819c-1.608-2.234-3.19-4.673-4.709-7.281c-1.497-2.613-3.042-5.358-4.318-8.313
					c-1.32-2.92-2.589-5.944-4.226-8.797c-1.625-2.847-3.688-5.515-6.414-7.364c-1.331-0.976-2.923-1.507-4.488-1.968
					c-1.599-0.443-3.243-0.736-4.894-0.949c-3.306-0.419-6.631-0.535-9.895-0.623l-4.855-0.136
					c-1.612-0.034-3.174-0.223-4.724-0.204l-9.002-0.085C344.876,243.831,335.463,244.081,330.382,243.816z"/>
			</g>
			<path fill="#C8DC64" d="M330.541,230.29c5.47-0.514,14.631-0.386,25.335,0.592c2.676,0.243,5.45,0.532,8.291,0.867l2.142,0.26
				c0.55,0.032,1.165,0.091,1.727,0.184l0.866,0.18c1.21,0.233,2.565,0.446,3.997,0.659c2.863,0.429,6,0.858,9.301,1.494
				c1.653,0.32,3.35,0.687,5.107,1.162c0.873,0.23,1.773,0.503,2.675,0.795c0.46,0.158,0.907,0.304,1.375,0.482l1.475,0.571
				c1.066,0.44,2.065,0.901,3.035,1.453c0.482,0.271,0.962,0.546,1.416,0.855c0.446,0.326,0.885,0.658,1.309,1.004
				c1.698,1.375,3.185,2.979,4.419,4.666c2.337,3.246,3.638,6.513,4.626,9.468c0.979,2.972,1.647,5.711,2.34,8.237
				c0.611,2.348,1.507,4.822,2.326,7.07c1.682,4.532,3.546,8.513,5.349,11.774c1.794,3.267,3.525,5.799,4.772,7.529
				c1.209,1.142,1.876,1.725,2.884,2.589c1.018,0.851,2.373,1.998,5.188,3.953c0.005-0.001-1.115-1.089-2.92-3.139
				c-1.797-2.053-4.233-5.114-6.667-9.094c-2.443-3.977-4.846-8.869-6.893-14.424c-0.515-1.388-1.011-2.816-1.489-4.28
				c-0.241-0.745-0.464-1.425-0.627-2.092l-0.605-2.273c-0.854-3.152-1.729-6.674-3.428-10.585
				c-0.856-1.949-1.956-4.003-3.439-6.028c-1.585-2.144-3.553-4.117-5.795-5.749c-1.119-0.823-2.361-1.469-3.627-2.075
				c-0.646-0.295-1.266-0.571-1.983-0.839c-0.648-0.257-1.162-0.443-1.743-0.649c-2.243-0.775-4.359-1.322-6.385-1.772
				c-4.043-0.889-7.758-1.396-11.104-1.893c-1.665-0.246-3.237-0.48-4.59-0.74l-0.968-0.199c-0.033-0.015-0.221-0.04-0.4-0.063
				l-0.521-0.068l-1.023-0.078l-2.423-0.289c-12.808-1.503-23.896-1.893-30.037-1.378c-3.77,0.321-7.188,0.777-11.137,1.629
				c-3.566,0.823-7.052,1.913-10.281,3.277c-6.487,2.702-11.752,6.564-14.829,10.391c3.317-3.433,8.249-6.719,14.049-9.051
				c2.891-1.175,5.973-2.129,9.121-2.861c0.788-0.184,1.579-0.353,2.375-0.51l1.319-0.242l1.241-0.19
				C327.369,230.623,328.919,230.441,330.541,230.29z"/>
			<path fill="#7E8C45" d="M428.207,293.708c1.008,1.317,1.613,2.027,1.61,2.028c0.004-0.007-1.404-0.801-3.785-2.447
				c-2.371-1.652-5.701-4.21-9.326-7.856c-3.632-3.629-7.512-8.368-11.149-13.924c-0.908-1.398-1.813-2.777-2.725-4.39l-2.48-4.519
				c-1.631-2.961-3.318-5.813-5.286-7.907c-1.007-1.077-1.945-1.827-3.016-2.46c-1.043-0.655-2.256-1.007-3.411-1.197
				c-1.267-0.235-2.859-0.389-4.42-0.448c-1.585-0.063-3.235-0.049-4.915,0.002c-3.375,0.1-6.818,0.375-10.509,0.482l-1.414,0.024
				l-0.361,0.001l-0.22,0.008c-0.129,0.001-0.251,0.018-0.372,0.031l-2.446,0.163l-4.85,0.338
				c-12.672,0.896-23.057,2.04-28.667,2.231c-1.1,0.03-2.105,0.055-3.14,0.056l-2.969,0.051c-1.985,0.027-3.886,0.026-5.706,0.014
				c-3.64-0.03-6.973-0.1-10.051-0.215c-6.13-0.251-11.343-0.621-14.719-2.418c-0.248,1.885,0.099,3.538,0.979,4.891
				c1.25,1.919,3.408,3.086,6.051,3.839c2.657,0.759,5.781,1.122,9.214,1.396c3.445,0.259,7.203,0.412,11.57,0.427l3.396-0.025
				l3.478-0.079l1.845-0.049l1.991-0.089c1.344-0.069,2.703-0.165,4.084-0.272c5.51-0.459,15.405-2.084,27.53-3.684l2.297-0.304
				c0.121-0.023,0.105-0.05,0.17-0.075l0.076-0.033c0.019-0.012,0.032-0.025,0.198-0.028l1.442-0.09
				c1.873-0.14,3.58-0.34,5.234-0.538c3.289-0.399,6.383-0.81,9.187-1.013c1.394-0.103,2.706-0.152,3.842-0.144l0.773,0.008
				c0.118-0.036,0.318-0.031,0.493-0.042c0.359-0.008,0.734,0.006,1.101,0.078c0.733,0.148,1.469,0.412,2.197,0.84
				c0.839,0.542,1.729,1.325,2.616,2.32c1.789,1.992,3.528,4.724,5.344,7.583l1.405,2.197c0.507,0.81,1.045,1.55,1.531,2.226
				c0.991,1.37,1.994,2.699,3.005,3.979c4.035,5.13,8.244,9.412,12.078,12.62c3.834,3.223,7.252,5.409,9.664,6.8
				c2.42,1.384,3.822,2.035,3.821,2.04C430.497,296.135,429.64,295.295,428.207,293.708z"/>
		</g>
	</g>
</g>
<g>
	<g>
		<g>
			<path fill="#8DC63F" d="M374.088,323.674c-0.001-0.004-1.118-0.113-3.115-0.485c-1.995-0.378-4.879-1.056-8.318-2.368
				c-3.437-1.301-7.417-3.266-11.471-5.978c-4.062-2.697-8.177-6.125-12.028-9.987c-3.86-3.858-7.462-8.133-10.708-12.434
				c-1.622-2.151-3.16-4.31-4.605-6.431l-2.099-3.149c-0.677-1.036-1.337-2.082-1.875-2.833c-0.091-0.089-0.155-0.108-0.208-0.119
				l-0.173-0.042c-0.112-0.024-0.22-0.04-0.321-0.048c-0.204-0.017-0.389-0.002-0.557,0.036c-0.336,0.074-0.617,0.264-0.797,0.459
				c-0.182,0.195-0.267,0.375-0.307,0.493c-0.02,0.061-0.027,0.104-0.032,0.139c-0.003,0.033,0.058,0.044-0.582,0.042h-0.126
				c-0.02-0.001-0.047-0.005-0.038-0.004l0.001-0.003c0.01-0.002,0.005-0.004-0.085,0l-0.388,0.011l-1.509,0.017
				c-0.986-0.002-1.937-0.031-2.853-0.082c-1.826-0.101-3.517-0.287-5.089-0.536c-3.147-0.501-5.827-1.245-8.256-2.165
				c-2.419-0.924-4.619-2.022-6.573-3.34c-1.942-1.327-3.643-2.892-4.673-4.936c-1.023-2.031-1.222-4.396-0.333-6.925
				c0.873-2.523,2.861-5.164,5.769-7.453c2.895-2.296,6.676-4.198,10.757-5.477c2.041-0.644,4.155-1.141,6.275-1.501
				c1.058-0.18,2.118-0.326,3.171-0.44l1.572-0.148l1.085-0.075c0.269-0.019,0.503-0.017,0.745-0.018l0.659,0.001
				c0.408,0.002,1.624,0.021,2.868,0.086c1.244,0.065,2.58,0.173,3.978,0.366c2.795,0.385,5.831,1.135,8.764,2.651
				c2.938,1.498,5.785,3.858,7.92,6.951c1.078,1.544,2.009,3.272,2.806,5.125c0.398,0.925,0.767,1.878,1.114,2.846l0.508,1.461
				l0.46,1.409c0.352,1.301,0.577,2.355,0.821,3.445l0.752,3.3c0.515,2.221,1.063,4.474,1.654,6.732
				c1.185,4.515,2.556,9.043,4.206,13.325c1.644,4.284,3.576,8.32,5.746,11.868c2.158,3.554,4.561,6.608,6.869,9.026
				c2.302,2.426,4.489,4.217,6.071,5.399C373.129,323.068,374.091,323.673,374.088,323.674z"/>
			<path fill="#8DC63F" d="M374.088,323.674c-0.001-0.004-1.118-0.113-3.115-0.485c-1.995-0.378-4.879-1.056-8.318-2.368
				c-3.437-1.301-7.417-3.266-11.471-5.978c-4.062-2.697-8.177-6.125-12.028-9.987c-3.86-3.858-7.462-8.133-10.708-12.434
				c-1.622-2.151-3.16-4.31-4.605-6.431l-2.099-3.149c-0.677-1.036-1.337-2.082-1.875-2.833c-0.091-0.089-0.155-0.108-0.208-0.119
				l-0.173-0.042c-0.112-0.024-0.22-0.04-0.321-0.048c-0.204-0.017-0.389-0.002-0.557,0.036c-0.336,0.074-0.617,0.264-0.797,0.459
				c-0.182,0.195-0.267,0.375-0.307,0.493c-0.02,0.061-0.027,0.104-0.032,0.139c-0.003,0.033,0.058,0.044-0.582,0.042h-0.126
				c-0.02-0.001-0.047-0.005-0.038-0.004l0.001-0.003c0.01-0.002,0.005-0.004-0.085,0l-0.388,0.011l-1.509,0.017
				c-0.986-0.002-1.937-0.031-2.853-0.082c-1.826-0.101-3.517-0.287-5.089-0.536c-3.147-0.501-5.827-1.245-8.256-2.165
				c-2.419-0.924-4.619-2.022-6.573-3.34c-1.942-1.327-3.643-2.892-4.673-4.936c-1.023-2.031-1.222-4.396-0.333-6.925
				c0.873-2.523,2.861-5.164,5.769-7.453c2.895-2.296,6.676-4.198,10.757-5.477c2.041-0.644,4.155-1.141,6.275-1.501
				c1.058-0.18,2.118-0.326,3.171-0.44l1.572-0.148l1.085-0.075c0.269-0.019,0.503-0.017,0.745-0.018l0.659,0.001
				c0.408,0.002,1.624,0.021,2.868,0.086c1.244,0.065,2.58,0.173,3.978,0.366c2.795,0.385,5.831,1.135,8.764,2.651
				c2.938,1.498,5.785,3.858,7.92,6.951c1.078,1.544,2.009,3.272,2.806,5.125c0.398,0.925,0.767,1.878,1.114,2.846l0.508,1.461
				l0.46,1.409c0.352,1.301,0.577,2.355,0.821,3.445l0.752,3.3c0.515,2.221,1.063,4.474,1.654,6.732
				c1.185,4.515,2.556,9.043,4.206,13.325c1.644,4.284,3.576,8.32,5.746,11.868c2.158,3.554,4.561,6.608,6.869,9.026
				c2.302,2.426,4.489,4.217,6.071,5.399C373.129,323.068,374.091,323.673,374.088,323.674z"/>
			<path fill="#8DC63F" d="M374.088,323.674c-0.001-0.004-1.118-0.113-3.115-0.485c-1.995-0.378-4.879-1.056-8.318-2.368
				c-3.437-1.301-7.417-3.266-11.471-5.978c-4.062-2.697-8.177-6.125-12.028-9.987c-3.86-3.858-7.462-8.133-10.708-12.434
				c-1.622-2.151-3.16-4.31-4.605-6.431l-2.099-3.149c-0.677-1.036-1.337-2.082-1.875-2.833c-0.091-0.089-0.155-0.108-0.208-0.119
				l-0.173-0.042c-0.112-0.024-0.22-0.04-0.321-0.048c-0.204-0.017-0.389-0.002-0.557,0.036c-0.336,0.074-0.617,0.264-0.797,0.459
				c-0.182,0.195-0.267,0.375-0.307,0.493c-0.02,0.061-0.027,0.104-0.032,0.139c-0.003,0.033,0.058,0.044-0.582,0.042h-0.126
				c-0.02-0.001-0.047-0.005-0.038-0.004l0.001-0.003c0.01-0.002,0.005-0.004-0.085,0l-0.388,0.011l-1.509,0.017
				c-0.986-0.002-1.937-0.031-2.853-0.082c-1.826-0.101-3.517-0.287-5.089-0.536c-3.147-0.501-5.827-1.245-8.256-2.165
				c-2.419-0.924-4.619-2.022-6.573-3.34c-1.942-1.327-3.643-2.892-4.673-4.936c-1.023-2.031-1.222-4.396-0.333-6.925
				c0.873-2.523,2.861-5.164,5.769-7.453c2.895-2.296,6.676-4.198,10.757-5.477c2.041-0.644,4.155-1.141,6.275-1.501
				c1.058-0.18,2.118-0.326,3.171-0.44l1.572-0.148l1.085-0.075c0.269-0.019,0.503-0.017,0.745-0.018l0.659,0.001
				c0.408,0.002,1.624,0.021,2.868,0.086c1.244,0.065,2.58,0.173,3.978,0.366c2.795,0.385,5.831,1.135,8.764,2.651
				c2.938,1.498,5.785,3.858,7.92,6.951c1.078,1.544,2.009,3.272,2.806,5.125c0.398,0.925,0.767,1.878,1.114,2.846l0.508,1.461
				l0.46,1.409c0.352,1.301,0.577,2.355,0.821,3.445l0.752,3.3c0.515,2.221,1.063,4.474,1.654,6.732
				c1.185,4.515,2.556,9.043,4.206,13.325c1.644,4.284,3.576,8.32,5.746,11.868c2.158,3.554,4.561,6.608,6.869,9.026
				c2.302,2.426,4.489,4.217,6.071,5.399C373.129,323.068,374.091,323.673,374.088,323.674z"/>
			<g>
				<polygon fill="#9AAA54" points="374.774,323.929 374.804,323.933 374.737,323.89 				"/>
				<path fill="#9AAA54" d="M313.533,263.067c-4.321-0.671-8.194-1.727-11.656-2.942c-3.453-1.221-6.514-2.615-8.932-4.229
					c-2.658,2.198-4.462,4.7-5.26,7.084c-0.81,2.397-0.637,4.648,0.305,6.621c0.983,2.061,2.654,3.666,4.575,5.026
					c1.937,1.356,4.127,2.483,6.559,3.438c2.439,0.95,5.146,1.719,8.327,2.241c1.589,0.258,3.299,0.453,5.148,0.559
					c0.927,0.053,1.888,0.083,2.886,0.086l0.758-0.003l0.385-0.005l0.098-0.002c0.005,0.001,0.001,0.003,0.002,0.004v0.006
					c-0.008,0.001,0.014,0.006,0.035,0.01c0.042,0.003-0.011,0.003,0.109,0.005l0.528,0.009c0.124-0.001,0.05,0,0.071-0.01
					l0.004-0.032c0.004-0.027,0.014-0.067,0.031-0.119c0.035-0.103,0.109-0.258,0.262-0.432c0.316-0.362,0.899-0.663,1.721-0.468
					c0.117,0.052,0.168-0.046,0.416,0.295l0.848,1.279l1.863,2.844c1.287,1.931,2.655,3.907,4.102,5.893
					c2.891,3.972,6.104,7.986,9.576,11.739c3.471,3.752,7.205,7.234,11.026,10.155c3.813,2.929,7.697,5.282,11.297,6.988
					c7.233,3.447,13.092,4.271,15.472,4.569c-2.631-0.901-8.497-3.155-14.725-8.098c-3.11-2.447-6.274-5.528-9.226-9.085
					c-2.953-3.555-5.692-7.574-8.137-11.781c-2.446-4.208-4.606-8.598-6.501-12.9c-0.947-2.151-1.826-4.284-2.65-6.357
					c-0.836-2.062-1.6-4.057-2.551-5.915c-0.477-0.923-1.018-1.799-1.68-2.541c-0.66-0.745-1.457-1.321-2.298-1.722
					c-1.695-0.793-3.444-1.048-5.04-1.292c-1.59-0.225-3.135-0.378-4.407-0.541C315.505,263.293,314.46,263.221,313.533,263.067z"/>
			</g>
			<path fill="#C8DC64" d="M313.809,249.581l1.777-0.06c0.266-0.012,0.512-0.006,0.757,0.002l0.681,0.027l1.214,0.069
				c2.294,0.12,4.894,0.332,7.532,0.912c2.643,0.585,5.332,1.563,7.836,3.206c2.518,1.639,4.715,3.983,6.356,6.798
				c0.83,1.407,1.541,2.938,2.162,4.531c0.312,0.796,0.602,1.607,0.879,2.424c0.271,0.801,0.567,1.698,0.747,2.339l0.368,1.53
				l0.328,1.459l0.664,2.92c0.907,3.917,1.906,7.916,3.066,11.831c2.292,7.831,5.363,15.313,9.013,21.151
				c3.585,5.874,7.698,10.011,10.022,12.058c1.063,0.544,1.639,0.814,2.508,1.207c0.875,0.377,2.037,0.904,4.368,1.688
				c0.003-0.001-0.959-0.606-2.546-1.788c-1.582-1.182-3.77-2.973-6.071-5.399c-2.309-2.417-4.711-5.472-6.869-9.026
				c-2.17-3.548-4.103-7.584-5.746-11.868c-1.65-4.282-3.021-8.811-4.206-13.325c-0.592-2.258-1.14-4.512-1.654-6.732l-0.752-3.3
				c-0.244-1.09-0.47-2.144-0.821-3.445l-0.46-1.409l-0.508-1.461c-0.348-0.967-0.716-1.92-1.114-2.846
				c-0.797-1.853-1.728-3.581-2.806-5.125c-2.135-3.093-4.981-5.453-7.92-6.951c-2.933-1.517-5.969-2.266-8.764-2.651
				c-1.397-0.192-2.733-0.3-3.978-0.366c-1.244-0.066-2.46-0.084-2.868-0.086l-0.815-0.001c-0.283-0.004-0.61,0.019-0.925,0.038
				l-1.087,0.083c-0.635,0.055-1.273,0.12-1.916,0.199c-1.281,0.155-2.572,0.359-3.856,0.614c-2.568,0.51-5.106,1.227-7.493,2.162
				c-4.776,1.844-8.879,4.623-11.393,7.676c2.689-2.631,6.507-4.917,10.788-6.455C304.589,250.652,309.297,249.817,313.809,249.581z
				"/>
			<path fill="#7E8C45" d="M372.097,322.299c0.906,0.815,1.44,1.249,1.438,1.251c0.002-0.009-1.143-0.233-3.14-0.848
				c-1.997-0.61-4.856-1.631-8.175-3.342c-3.316-1.702-7.072-4.123-10.799-7.269c-3.729-3.137-7.42-6.977-10.803-11.208
				c-3.392-4.227-6.496-8.824-9.258-13.412c-1.381-2.294-2.682-4.587-3.899-6.834l-1.724-3.205
				c-0.383-0.627-0.697-1.108-1.044-1.618c-0.674-0.979-1.376-1.88-2.36-2.313c-0.979-0.425-2.006-0.412-2.875-0.423l-1.247,0.015
				h-1.462c-0.096,0.001-0.21-0.009-0.287-0.003l-0.351,0.008l-0.971,0.021c-0.619,0.007-1.183,0.001-1.689-0.017
				c-6.286-0.255-11.398-1.32-15.876-2.635c-4.435-1.357-8.383-2.937-11.102-5.303c-0.2,1.722,0.106,3.324,0.831,4.768
				c1.029,2.044,2.731,3.609,4.672,4.936c1.954,1.318,4.154,2.417,6.574,3.34c2.429,0.92,5.109,1.664,8.255,2.165
				c1.573,0.249,3.263,0.436,5.09,0.536c0.916,0.051,1.866,0.08,2.853,0.082l1.508-0.017l0.389-0.011
				c0.09-0.004,0.093-0.001,0.084,0l-0.001,0.003c-0.009,0,0.019,0.003,0.038,0.004h0.127c0.641,0.001,0.577-0.01,0.581-0.042
				c0.005-0.035,0.013-0.079,0.032-0.139c0.04-0.118,0.125-0.298,0.307-0.493c0.18-0.195,0.461-0.385,0.797-0.459
				c0.168-0.039,0.353-0.053,0.557-0.036c0.102,0.008,0.209,0.024,0.321,0.048l0.173,0.042c0.053,0.011,0.117,0.03,0.208,0.119
				c0.538,0.751,1.198,1.797,1.876,2.833l2.098,3.148c1.445,2.121,2.983,4.28,4.605,6.431c3.246,4.302,6.848,8.576,10.708,12.434
				c3.852,3.862,7.967,7.29,12.028,9.987c4.054,2.711,8.034,4.677,11.471,5.978c3.439,1.312,6.323,1.99,8.318,2.368
				c1.997,0.373,3.114,0.481,3.115,0.485C374.091,323.671,373.352,323.208,372.097,322.299z"/>
		</g>
	</g>
</g>
<linearGradient id="SVGID_45_" gradientUnits="userSpaceOnUse" x1="263.4204" y1="153.1372" x2="299.3406" y2="243.7212">
	<stop  offset="0" style="stop-color:#DA1C5C"/>
	<stop  offset="0" style="stop-color:#A1CD3A"/>
	<stop  offset="1" style="stop-color:#43A03E"/>
</linearGradient>
<path fill="url(#SVGID_45_)" d="M284.804,243.933c0-21.981-0.229-50.469-16.333-67.552c-4.779-5.068-10.837-4.803-9.028-11.311
	c1.187-4.27,10.166-10.217,13.461-14.062c14.921,8.228,14.33,45.092,15.012,60.06c0.549,12.053,2.176,24.515,1.889,36.365
	L284.804,243.933z"/>
<g>
	<g>
		<g>
			<path fill="#8DC63F" d="M120.673,293.138c0.007,0.005,0.762-1.811,2.339-4.888c1.582-3.071,4.023-7.391,7.509-12.215
				c3.475-4.823,8.004-10.143,13.516-15.187c5.499-5.047,11.983-9.811,19.036-13.589c7.042-3.792,14.64-6.567,22.044-7.968
				c7.41-1.425,14.572-1.467,20.873-0.514c3.271,0.48,6.148,1.147,8.965,1.979c2.796,0.824,5.42,1.782,7.823,2.753
				c4.81,1.954,8.729,3.95,11.571,5.308c11.397,5.446,21.698,11.176,29.953,15.102c4.134,1.962,7.797,3.471,10.917,4.201
				c3.12,0.721,5.726,0.657,7.583-0.687c1.841-1.332,2.733-3.87,2.445-7.388c-0.279-3.511-1.764-7.972-4.57-12.824
				c-5.565-9.686-16.618-20.861-32.052-28.24c-3.846-1.835-9.457-4.019-16.573-5.737c-3.559-0.852-7.495-1.582-11.764-2.033
				c-4.245-0.459-8.943-0.6-13.578-0.332c-9.508,0.503-19.486,2.875-28.651,6.932c-9.191,4.031-17.563,9.661-24.625,16.01
				c-7.082,6.349-12.885,13.4-17.409,20.294c-4.534,6.897-7.793,13.636-10.053,19.467c-2.268,5.836-3.548,10.762-4.298,14.188
				C120.933,291.2,120.682,293.139,120.673,293.138z"/>
			<path fill="#8DC63F" d="M120.673,293.138c0.007,0.005,0.762-1.811,2.339-4.888c1.582-3.071,4.023-7.391,7.509-12.215
				c3.475-4.823,8.004-10.143,13.516-15.187c5.499-5.047,11.983-9.811,19.036-13.589c7.042-3.792,14.64-6.567,22.044-7.968
				c7.41-1.425,14.572-1.467,20.873-0.514c3.271,0.48,6.148,1.147,8.965,1.979c2.796,0.824,5.42,1.782,7.823,2.753
				c4.81,1.954,8.729,3.95,11.571,5.308c11.397,5.446,21.698,11.176,29.953,15.102c4.134,1.962,7.797,3.471,10.917,4.201
				c3.12,0.721,5.726,0.657,7.583-0.687c1.841-1.332,2.733-3.87,2.445-7.388c-0.279-3.511-1.764-7.972-4.57-12.824
				c-5.565-9.686-16.618-20.861-32.052-28.24c-3.846-1.835-9.457-4.019-16.573-5.737c-3.559-0.852-7.495-1.582-11.764-2.033
				c-4.245-0.459-8.943-0.6-13.578-0.332c-9.508,0.503-19.486,2.875-28.651,6.932c-9.191,4.031-17.563,9.661-24.625,16.01
				c-7.082,6.349-12.885,13.4-17.409,20.294c-4.534,6.897-7.793,13.636-10.053,19.467c-2.268,5.836-3.548,10.762-4.298,14.188
				C120.933,291.2,120.682,293.139,120.673,293.138z"/>
			<path fill="#8DC63F" d="M120.673,293.138c0.007,0.005,0.762-1.811,2.339-4.888c1.582-3.071,4.023-7.391,7.509-12.215
				c3.475-4.823,8.004-10.143,13.516-15.187c5.499-5.047,11.983-9.811,19.036-13.589c7.042-3.792,14.64-6.567,22.044-7.968
				c7.41-1.425,14.572-1.467,20.873-0.514c3.271,0.48,6.148,1.147,8.965,1.979c2.796,0.824,5.42,1.782,7.823,2.753
				c4.81,1.954,8.729,3.95,11.571,5.308c11.397,5.446,21.698,11.176,29.953,15.102c4.134,1.962,7.797,3.471,10.917,4.201
				c3.12,0.721,5.726,0.657,7.583-0.687c1.841-1.332,2.733-3.87,2.445-7.388c-0.279-3.511-1.764-7.972-4.57-12.824
				c-5.565-9.686-16.618-20.861-32.052-28.24c-3.846-1.835-9.457-4.019-16.573-5.737c-3.559-0.852-7.495-1.582-11.764-2.033
				c-4.245-0.459-8.943-0.6-13.578-0.332c-9.508,0.503-19.486,2.875-28.651,6.932c-9.191,4.031-17.563,9.661-24.625,16.01
				c-7.082,6.349-12.885,13.4-17.409,20.294c-4.534,6.897-7.793,13.636-10.053,19.467c-2.268,5.836-3.548,10.762-4.298,14.188
				C120.933,291.2,120.682,293.139,120.673,293.138z"/>
			<g>
				<polygon fill="#9AAA54" points="120.324,294.385 120.304,294.433 120.323,294.297 				"/>
				<path fill="#9AAA54" d="M247.461,235.257c14.251,5.726,25.309,10.856,32.821,12.108c2.534,4.55,3.857,8.712,4.086,11.991
					c0.228,3.293-0.62,5.687-2.366,6.994c-1.834,1.374-4.439,1.478-7.573,0.8c-3.134-0.687-6.824-2.152-10.988-4.067
					c-8.315-3.832-18.686-9.461-30.125-14.754c-2.629-1.216-6.182-2.972-10.511-4.718c-4.348-1.745-9.372-3.464-15.04-4.451
					c-5.692-1.026-12.04-1.293-18.803-0.404c-6.741,0.868-13.798,2.9-20.55,5.939c-6.758,3.025-13.194,7.034-18.882,11.525
					c-5.698,4.486-10.648,9.447-14.691,14.283c-8.132,9.687-12.483,18.8-14.166,22.634c1.424-4.719,5.045-15.154,12.922-26.646
					c3.914-5.732,8.85-11.698,14.757-17.234c5.898-5.535,12.772-10.633,20.297-14.65c7.512-4.029,15.673-6.949,23.805-8.403
					c8.13-1.49,16.185-1.467,23.417-0.478c7.246,0.99,13.675,2.844,19.002,4.669C240.205,232.233,244.454,234.057,247.461,235.257z"
					/>
			</g>
			<path fill="#C8DC64" d="M252.143,222.506c-3.323-1.741-7.931-3.766-13.647-5.572c-5.713-1.797-12.555-3.382-20.262-4.019
				c-1.926-0.158-3.904-0.254-5.927-0.272c-2.054-0.017-3.969,0.046-6.068,0.171c-4.128,0.265-8.32,0.864-12.463,1.803
				c-8.296,1.869-16.354,5.13-23.578,9.332c-7.24,4.196-13.663,9.298-19.104,14.699c-5.448,5.404-9.928,11.098-13.492,16.53
				c-7.156,10.895-10.589,20.616-12.142,25.712c-0.892,1.899-1.33,2.929-1.975,4.479c-0.626,1.557-1.498,3.624-2.81,7.768
				c0.008,0.001,0.259-1.938,1.001-5.368c0.75-3.425,2.03-8.352,4.298-14.188c2.26-5.831,5.519-12.57,10.053-19.467
				c4.523-6.894,10.327-13.945,17.409-20.294c7.063-6.349,15.434-11.979,24.625-16.01c9.166-4.056,19.143-6.429,28.651-6.932
				c4.635-0.269,9.333-0.127,13.578,0.332c4.269,0.451,8.205,1.182,11.764,2.033c7.116,1.718,12.727,3.902,16.573,5.737
				c9.357,4.479,17.151,10.372,23.03,16.467c5.893,6.099,9.864,12.408,11.91,17.771c-2.412-5.088-6.288-10.715-11.586-16.086
				C266.693,231.756,259.992,226.625,252.143,222.506z"/>
			<path fill="#7E8C45" d="M121.421,288.965c-0.287,2.089-0.388,3.245-0.39,3.246c0.008,0.004,0.707-1.925,2.218-5.215
				c1.516-3.284,3.885-7.918,7.36-13.139c3.463-5.219,8.048-11.013,13.738-16.556c5.678-5.542,12.468-10.825,19.995-15.038
				c7.513-4.225,15.752-7.348,23.934-8.887c4.088-0.78,8.153-1.174,12.088-1.21c1.968-0.019,3.903,0.05,5.794,0.202
				c0.933,0.073,1.898,0.17,2.838,0.283c0.939,0.104,1.833,0.239,2.737,0.378c7.205,1.169,13.715,3.392,19.106,5.605
				c5.4,2.228,9.712,4.448,12.768,5.931c9.487,4.614,17.83,9.14,24.824,12.568c6.986,3.412,12.684,5.803,16.765,5.715
				c-0.267,2.08-1.086,3.636-2.392,4.583c-1.857,1.344-4.462,1.408-7.583,0.687c-3.12-0.73-6.784-2.239-10.918-4.201
				c-8.255-3.926-18.556-9.656-29.954-15.102c-2.842-1.357-6.761-3.354-11.571-5.308c-2.403-0.971-5.026-1.928-7.823-2.753
				c-2.817-0.832-5.694-1.498-8.965-1.979c-6.301-0.954-13.462-0.911-20.872,0.514c-7.405,1.401-15.003,4.176-22.044,7.968
				c-7.053,3.778-13.538,8.542-19.036,13.589c-5.512,5.044-10.041,10.364-13.516,15.188c-3.486,4.823-5.928,9.143-7.509,12.214
				c-1.578,3.078-2.333,4.894-2.339,4.888C120.68,293.139,120.878,291.647,121.421,288.965z"/>
		</g>
	</g>
</g>
<g>
	<g>
		<g>
			<path fill="#8DC63F" d="M181.635,281.902c-0.033-0.036,3.822-1.165,9.388-4.954c2.772-1.883,5.925-4.423,9.199-7.524
				c3.282-3.093,6.688-6.734,10.134-10.658c3.449-3.919,6.943-8.122,10.49-12.245c3.544-4.114,7.161-8.165,10.791-11.554
				c1.812-1.688,3.624-3.203,5.374-4.43l0.653-0.445c0.191-0.123,0.239-0.091,0.348-0.139c0.197-0.051,0.381-0.099,0.563-0.131
				c0.363-0.066,0.698-0.092,1.005-0.082c0.614,0.02,1.114,0.188,1.484,0.443c0.186,0.127,0.338,0.275,0.46,0.434
				c0.027,0.046,0.066,0.066,0.078,0.135l0.021,0.223l0.033,0.403c0.035,0.514,0.02,0.882-0.037,1.154
				c-0.723-0.464,1.508,2.298,2.653,3.715c2.61,3.2,4.792,5.611,6.483,7.319c4.147,4.164,8.091,7.522,11.549,10.284
				c3.472,2.76,6.43,4.88,8.969,6.532c2.547,1.651,4.747,2.901,6.924,4.118c2.173,1.175,4.283,2.341,6.573,2.418
				c2.251,0.083,4.59-1.153,6.169-4.253c1.593-3.044,2.125-7.899,1.08-13.079c-1.003-5.199-3.404-10.596-6.568-15.56
				c-3.165-4.985-7.093-9.608-11.238-13.776c-1.69-1.705-4.024-3.787-6.621-6.075l-1.978-1.751l-0.502-0.447
				c-0.049-0.046-0.067-0.056-0.143-0.132l-0.248-0.253l-0.506-0.516c-0.71-0.735-1.412-1.495-2.105-2.283s-1.367-1.617-2.007-2.521
				c-0.637-0.909-1.256-1.881-1.904-2.844l-3.946-5.913l-2.871,0.347l-1.236,0.138c-0.422,0.053-1.027,0.171-1.528,0.255
				c-2.1,0.382-4.16,0.725-6.234,1.194c-4.147,0.98-8.319,2.78-12.17,5.359c-1.923,1.29-3.77,2.752-5.497,4.356
				c-0.863,0.803-1.7,1.634-2.505,2.493c-0.385,0.414-0.839,0.902-1.134,1.254l-0.802,0.986c-2.092,2.641-3.864,5.336-5.453,8.025
				c-3.16,5.382-5.621,10.742-7.886,15.898l-6.301,14.72c-2.008,4.6-3.994,8.836-6.004,12.539c-2.002,3.707-4.036,6.873-5.947,9.387
				C184.872,279.514,181.597,281.885,181.635,281.902z"/>
			<path fill="#8DC63F" d="M181.635,281.902c-0.033-0.036,3.822-1.165,9.388-4.954c2.772-1.883,5.925-4.423,9.199-7.524
				c3.282-3.093,6.688-6.734,10.134-10.658c3.449-3.919,6.943-8.122,10.49-12.245c3.544-4.114,7.161-8.165,10.791-11.554
				c1.812-1.688,3.624-3.203,5.374-4.43l0.653-0.445c0.191-0.123,0.239-0.091,0.348-0.139c0.197-0.051,0.381-0.099,0.563-0.131
				c0.363-0.066,0.698-0.092,1.005-0.082c0.614,0.02,1.114,0.188,1.484,0.443c0.186,0.127,0.338,0.275,0.46,0.434
				c0.027,0.046,0.066,0.066,0.078,0.135l0.021,0.223l0.033,0.403c0.035,0.514,0.02,0.882-0.037,1.154
				c-0.723-0.464,1.508,2.298,2.653,3.715c2.61,3.2,4.792,5.611,6.483,7.319c4.147,4.164,8.091,7.522,11.549,10.284
				c3.472,2.76,6.43,4.88,8.969,6.532c2.547,1.651,4.747,2.901,6.924,4.118c2.173,1.175,4.283,2.341,6.573,2.418
				c2.251,0.083,4.59-1.153,6.169-4.253c1.593-3.044,2.125-7.899,1.08-13.079c-1.003-5.199-3.404-10.596-6.568-15.56
				c-3.165-4.985-7.093-9.608-11.238-13.776c-1.69-1.705-4.024-3.787-6.621-6.075l-1.978-1.751l-0.502-0.447
				c-0.049-0.046-0.067-0.056-0.143-0.132l-0.248-0.253l-0.506-0.516c-0.71-0.735-1.412-1.495-2.105-2.283s-1.367-1.617-2.007-2.521
				c-0.637-0.909-1.256-1.881-1.904-2.844l-3.946-5.913l-2.871,0.347l-1.236,0.138c-0.422,0.053-1.027,0.171-1.528,0.255
				c-2.1,0.382-4.16,0.725-6.234,1.194c-4.147,0.98-8.319,2.78-12.17,5.359c-1.923,1.29-3.77,2.752-5.497,4.356
				c-0.863,0.803-1.7,1.634-2.505,2.493c-0.385,0.414-0.839,0.902-1.134,1.254l-0.802,0.986c-2.092,2.641-3.864,5.336-5.453,8.025
				c-3.16,5.382-5.621,10.742-7.886,15.898l-6.301,14.72c-2.008,4.6-3.994,8.836-6.004,12.539c-2.002,3.707-4.036,6.873-5.947,9.387
				C184.872,279.514,181.597,281.885,181.635,281.902z"/>
			<path fill="#8DC63F" d="M181.635,281.902c-0.033-0.036,3.822-1.165,9.388-4.954c2.772-1.883,5.925-4.423,9.199-7.524
				c3.282-3.093,6.688-6.734,10.134-10.658c3.449-3.919,6.943-8.122,10.49-12.245c3.544-4.114,7.161-8.165,10.791-11.554
				c1.812-1.688,3.624-3.203,5.374-4.43l0.653-0.445c0.191-0.123,0.239-0.091,0.348-0.139c0.197-0.051,0.381-0.099,0.563-0.131
				c0.363-0.066,0.698-0.092,1.005-0.082c0.614,0.02,1.114,0.188,1.484,0.443c0.186,0.127,0.338,0.275,0.46,0.434
				c0.027,0.046,0.066,0.066,0.078,0.135l0.021,0.223l0.033,0.403c0.035,0.514,0.02,0.882-0.037,1.154
				c-0.723-0.464,1.508,2.298,2.653,3.715c2.61,3.2,4.792,5.611,6.483,7.319c4.147,4.164,8.091,7.522,11.549,10.284
				c3.472,2.76,6.43,4.88,8.969,6.532c2.547,1.651,4.747,2.901,6.924,4.118c2.173,1.175,4.283,2.341,6.573,2.418
				c2.251,0.083,4.59-1.153,6.169-4.253c1.593-3.044,2.125-7.899,1.08-13.079c-1.003-5.199-3.404-10.596-6.568-15.56
				c-3.165-4.985-7.093-9.608-11.238-13.776c-1.69-1.705-4.024-3.787-6.621-6.075l-1.978-1.751l-0.502-0.447
				c-0.049-0.046-0.067-0.056-0.143-0.132l-0.248-0.253l-0.506-0.516c-0.71-0.735-1.412-1.495-2.105-2.283s-1.367-1.617-2.007-2.521
				c-0.637-0.909-1.256-1.881-1.904-2.844l-3.946-5.913l-2.871,0.347l-1.236,0.138c-0.422,0.053-1.027,0.171-1.528,0.255
				c-2.1,0.382-4.16,0.725-6.234,1.194c-4.147,0.98-8.319,2.78-12.17,5.359c-1.923,1.29-3.77,2.752-5.497,4.356
				c-0.863,0.803-1.7,1.634-2.505,2.493c-0.385,0.414-0.839,0.902-1.134,1.254l-0.802,0.986c-2.092,2.641-3.864,5.336-5.453,8.025
				c-3.16,5.382-5.621,10.742-7.886,15.898l-6.301,14.72c-2.008,4.6-3.994,8.836-6.004,12.539c-2.002,3.707-4.036,6.873-5.947,9.387
				C184.872,279.514,181.597,281.885,181.635,281.902z"/>
			<g>
				<polygon fill="#9AAA54" points="180.74,282.405 180.701,282.418 180.787,282.351 				"/>
				<path fill="#9AAA54" d="M266.851,234.17c4.854,3.64,9.432,6.583,13.583,9.134c4.154,2.526,7.907,4.735,11.171,6.308
					c0.877,4.806,0.37,9.225-1.077,12.061c-1.439,2.884-3.592,4.134-5.759,4.178c-2.287,0.048-4.463-0.993-6.695-2.09
					c-2.239-1.137-4.515-2.376-7.152-4.037c-2.629-1.662-5.676-3.796-9.216-6.569c-3.526-2.774-7.52-6.148-11.705-10.35
					c-1.638-1.655-3.733-3.975-6.225-7.046c-0.623-0.771-1.269-1.588-1.937-2.462l-0.251-0.33c-0.057-0.072-0.066-0.09-0.062-0.093
					l-0.01-0.036c-0.02-0.062-0.003-0.07,0.006-0.102c0.018-0.054,0.033-0.112,0.047-0.176c0.055-0.256,0.074-0.601,0.049-1.078
					c-0.024-0.197-0.005-0.524-0.087-0.701c-0.098-0.146-0.222-0.285-0.373-0.409c-0.301-0.249-0.711-0.437-1.22-0.511
					c-0.508-0.074-1.119-0.04-1.813,0.144c-0.092,0.019-0.17,0.049-0.27,0.074c-0.048,0.017-0.144,0.08-0.249,0.151l-0.297,0.202
					c-0.398,0.27-0.799,0.564-1.204,0.862c-0.809,0.607-1.63,1.267-2.456,1.973c-3.308,2.833-6.657,6.367-9.946,10.07
					c-3.293,3.71-6.547,7.605-9.773,11.364c-6.425,7.543-12.877,14.487-18.785,19.187c-2.935,2.367-5.694,4.189-8.032,5.479
					c-2.336,1.298-4.238,2.079-5.478,2.534c1.28-0.705,3.086-1.813,5.176-3.437c2.089-1.622,4.451-3.767,6.88-6.418
					c4.895-5.281,9.94-12.597,15.001-20.691c5.112-8.058,10.251-16.984,16.574-24.748c3.192-3.873,6.659-7.357,10.671-9.864
					c2.005-1.251,4.142-2.244,6.342-2.887c1.099-0.32,2.211-0.561,3.322-0.715l0.417-0.055l0.104-0.014
					c0.023,0.018,0.037,0.055,0.056,0.082l0.106,0.173l0.434,0.684c0.293,0.451,0.596,0.894,0.905,1.327
					c1.715,2.392,3.609,4.525,5.483,6.498c1.866,1.95,3.677,3.679,5.373,5.238C261.872,230.181,264.759,232.59,266.851,234.17z"/>
			</g>
			<path fill="#C8DC64" d="M275.438,223.721c-1.96-1.99-4.725-4.433-7.831-7.116l-2.372-2.058l-1.208-1.059
				c-0.252-0.188-1.159-1.107-1.93-1.918c-0.781-0.825-1.553-1.67-2.292-2.578c-0.746-0.897-1.419-1.921-2.123-2.942l-4.279-6.248
				l-2.238,0.128l-0.988,0.038l-0.464,0.012l-0.228,0.005l-0.311,0.055c-1.663,0.295-3.293,0.605-4.912,0.939
				c-3.232,0.628-6.476,1.746-9.565,3.368c-3.091,1.614-6.016,3.737-8.642,6.173c-0.657,0.608-1.294,1.237-1.915,1.879l-0.914,0.976
				c-0.292,0.321-0.623,0.685-0.835,0.945c-0.849,1.031-1.646,2.075-2.397,3.125c-2.997,4.203-5.33,8.475-7.4,12.655
				c-2.063,4.183-3.849,8.285-5.53,12.214c-3.338,7.859-6.324,15.023-9.267,20.797c-2.901,5.783-5.77,10.145-7.713,12.664
				c-1.239,1.125-1.927,1.692-2.976,2.52c-1.063,0.803-2.461,1.935-5.475,3.608c-0.038-0.017,3.237-2.388,7.054-7.434
				c1.912-2.514,3.945-5.681,5.947-9.387c2.01-3.703,3.997-7.939,6.004-12.539l6.301-14.72c2.265-5.157,4.726-10.517,7.886-15.898
				c1.589-2.688,3.36-5.384,5.453-8.025l0.802-0.986c0.294-0.352,0.749-0.84,1.134-1.254c0.805-0.859,1.642-1.689,2.505-2.493
				c1.728-1.604,3.574-3.066,5.497-4.356c3.851-2.579,8.023-4.379,12.17-5.359c2.074-0.469,4.134-0.812,6.234-1.194
				c0.501-0.084,1.106-0.203,1.528-0.255l1.236-0.138l2.871-0.347l3.946,5.913c0.648,0.963,1.268,1.935,1.904,2.844
				c0.641,0.904,1.314,1.733,2.007,2.521s1.395,1.547,2.105,2.283l0.506,0.516l0.248,0.253c0.075,0.076,0.093,0.086,0.143,0.132
				l0.502,0.447l1.978,1.751c2.597,2.288,4.93,4.37,6.621,6.075c5.037,5.062,9.753,10.81,13.164,17.035
				c1.704,3.104,3.077,6.326,3.974,9.52c0.901,3.187,1.31,6.35,1.179,9.163c-0.169-5.553-2.245-11.653-5.369-17.136
				C284.039,233.304,279.908,228.242,275.438,223.721z"/>
			<path fill="#7E8C45" d="M184.127,279.676c-1.097,1.243-1.779,1.894-1.775,1.895c-0.031-0.029,3.524-1.459,8.521-5.436
				c2.49-1.98,5.303-4.591,8.218-7.746c2.919-3.15,5.943-6.833,9.007-10.829c3.07-3.992,6.186-8.297,9.396-12.615
				c3.212-4.31,6.525-8.649,10.022-12.529c1.746-1.938,3.541-3.751,5.367-5.346l0.686-0.587c0.23-0.191,0.475-0.397,0.621-0.498
				c0.33-0.249,0.665-0.483,0.997-0.709c0.667-0.45,1.338-0.852,2.013-1.201c1.348-0.699,2.716-1.179,4.057-1.409
				c0.67-0.116,1.332-0.171,1.977-0.169c0.159,0.001,0.325-0.001,0.476,0.017l0.234,0.485c0.159,0.318,0.321,0.625,0.485,0.923
				c0.834,1.499,1.69,2.734,2.53,3.855c0.067,0.097,0.373,0.457,0.59,0.718l0.696,0.82l1.364,1.565
				c0.896,1.012,1.765,1.962,2.599,2.855c3.341,3.567,6.104,6.275,8.123,8.089c6.595,5.866,12.453,10.145,17.178,13.805
				c2.379,1.827,4.514,3.528,6.461,5.14c1.953,1.596,3.708,3.113,5.417,4.124c-1.394,1.478-3.008,2.069-4.618,2.022
				c-2.29-0.078-4.4-1.243-6.574-2.418c-2.177-1.217-4.376-2.467-6.924-4.118c-2.54-1.651-5.498-3.771-8.97-6.532
				c-3.458-2.761-7.402-6.12-11.55-10.283c-1.691-1.708-3.873-4.12-6.482-7.319c-1.146-1.417-3.376-4.179-2.653-3.715
				c0.056-0.272,0.071-0.64,0.037-1.154l-0.033-0.403l-0.021-0.223c-0.011-0.069-0.051-0.089-0.078-0.135
				c-0.122-0.159-0.274-0.306-0.46-0.434c-0.37-0.255-0.87-0.423-1.484-0.443c-0.307-0.01-0.643,0.016-1.005,0.082
				c-0.183,0.032-0.367,0.08-0.563,0.131c-0.109,0.048-0.157,0.016-0.348,0.139l-0.652,0.445c-1.751,1.227-3.563,2.742-5.375,4.43
				c-3.63,3.389-7.247,7.44-10.79,11.554c-3.547,4.123-7.042,8.326-10.491,12.245c-3.445,3.923-6.852,7.564-10.133,10.658
				c-3.275,3.101-6.428,5.641-9.2,7.523c-5.566,3.79-9.421,4.919-9.388,4.955C181.628,281.897,182.59,281.164,184.127,279.676z"/>
		</g>
	</g>
</g>
<g>
	<g>
		<g>
			<path fill="#8DC63F" d="M133.623,343.014c0.005,0.009,1.364-1.173,3.909-3.05c2.549-1.868,6.311-4.387,11.158-6.81
				c4.843-2.458,10.761-4.704,17.507-7.02c6.728-2.331,14.352-4.932,22.06-8.634c1.925-0.918,3.849-1.904,5.761-2.945
				c0.948-0.514,1.909-1.06,2.897-1.639c0.886-0.52,1.657-0.934,2.533-1.421c3.434-1.904,7.185-3.918,11.058-6.541
				c1.938-1.319,3.917-2.796,5.903-4.625c0.992-0.916,1.985-1.921,2.959-3.057c0.455-0.516,1.042-1.281,1.533-1.953
				c0.261-0.339,0.48-0.703,0.709-1.063c0.254-0.411,0.345-0.522,0.507-0.766c2.326-3.421,4.362-6.551,6.307-9.366
				c0.968-1.403,1.905-2.72,2.801-3.908c0.448-0.594,0.885-1.155,1.307-1.672c0.041-0.045,0.131-0.17,0.13-0.148
				c0.017-0.005,0.025-0.004,0.046-0.014c0.031-0.026,0.008,0.024,0.081-0.065l0.172-0.198l0.673-0.751
				c0.438-0.482,0.869-0.932,1.248-1.301c0.249-0.264,0.216-0.149,0.275-0.175c0.047,0.004,0.083,0.002,0.127,0.009
				c0.163,0.021,0.296,0.071,0.403,0.135c0.217,0.133,0.318,0.321,0.352,0.447c0.017,0.063,0.02,0.112,0.019,0.144l-0.003,0.038
				c-0.003,0.005-0.009,0.002,0.041,0.02l0.307,0.085c5.417,1.553,13.265,3.593,19.672,3.946c3.026,0.207,5.657,0.233,8.045,0.205
				c2.383-0.033,4.499-0.131,6.36-0.272c1.859-0.141,3.456-0.329,4.836-0.564c1.392-0.221,2.514-0.564,3.757-0.743
				c2.469-0.404,4.771-0.342,6.649-1.566c0.944-0.62,1.765-1.568,2.218-2.884c0.451-1.31,0.526-2.994-0.039-4.915
				c-0.539-1.911-1.87-4.091-3.561-6.033c-1.7-1.96-3.801-3.759-6.134-5.369c-4.641-3.224-10.353-5.686-15.845-7.679
				c-5.152-1.841-9.605-3.839-17.215-6.024l-0.951-0.252l-1.282-0.314c-0.905-0.21-1.854-0.405-2.844-0.568
				c-1.979-0.328-4.125-0.519-6.383-0.437c-4.499,0.142-9.546,1.553-14.017,4.757c-2.239,1.581-4.329,3.582-6.24,5.865
				c-0.478,0.571-0.945,1.158-1.401,1.761c-0.438,0.577-0.971,1.303-1.206,1.67c-0.596,0.888-1.129,1.736-1.64,2.592l-0.749,1.278
				l-0.181,0.318l-0.273,0.453c-0.101,0.162-0.197,0.344-0.294,0.516l-0.206,0.386c-0.472,0.913-0.914,1.817-1.336,2.718
				c-0.844,1.801-1.612,3.589-2.345,5.375c-1.461,3.56-2.789,7.147-4.084,10.519c-0.047,1.276-1.545,3.667-3.786,6.161
				c-2.228,2.518-5.073,5.158-8.124,8.03c-0.746,0.707-1.589,1.495-2.298,2.202c-0.623,0.624-1.281,1.268-1.969,1.913
				c-1.36,1.28-2.75,2.531-4.175,3.744c-5.678,4.868-11.937,9.137-17.914,13.25c-5.979,4.096-11.503,8.189-15.715,12.106
				c-4.245,3.896-7.247,7.488-9.2,10.036C134.589,341.508,133.632,343.02,133.623,343.014z"/>
			<path fill="#8DC63F" d="M133.623,343.014c0.005,0.009,1.364-1.173,3.909-3.05c2.549-1.868,6.311-4.387,11.158-6.81
				c4.843-2.458,10.761-4.704,17.507-7.02c6.728-2.331,14.352-4.932,22.06-8.634c1.925-0.918,3.849-1.904,5.761-2.945
				c0.948-0.514,1.909-1.06,2.897-1.639c0.886-0.52,1.657-0.934,2.533-1.421c3.434-1.904,7.185-3.918,11.058-6.541
				c1.938-1.319,3.917-2.796,5.903-4.625c0.992-0.916,1.985-1.921,2.959-3.057c0.455-0.516,1.042-1.281,1.533-1.953
				c0.261-0.339,0.48-0.703,0.709-1.063c0.254-0.411,0.345-0.522,0.507-0.766c2.326-3.421,4.362-6.551,6.307-9.366
				c0.968-1.403,1.905-2.72,2.801-3.908c0.448-0.594,0.885-1.155,1.307-1.672c0.041-0.045,0.131-0.17,0.13-0.148
				c0.017-0.005,0.025-0.004,0.046-0.014c0.031-0.026,0.008,0.024,0.081-0.065l0.172-0.198l0.673-0.751
				c0.438-0.482,0.869-0.932,1.248-1.301c0.249-0.264,0.216-0.149,0.275-0.175c0.047,0.004,0.083,0.002,0.127,0.009
				c0.163,0.021,0.296,0.071,0.403,0.135c0.217,0.133,0.318,0.321,0.352,0.447c0.017,0.063,0.02,0.112,0.019,0.144l-0.003,0.038
				c-0.003,0.005-0.009,0.002,0.041,0.02l0.307,0.085c5.417,1.553,13.265,3.593,19.672,3.946c3.026,0.207,5.657,0.233,8.045,0.205
				c2.383-0.033,4.499-0.131,6.36-0.272c1.859-0.141,3.456-0.329,4.836-0.564c1.392-0.221,2.514-0.564,3.757-0.743
				c2.469-0.404,4.771-0.342,6.649-1.566c0.944-0.62,1.765-1.568,2.218-2.884c0.451-1.31,0.526-2.994-0.039-4.915
				c-0.539-1.911-1.87-4.091-3.561-6.033c-1.7-1.96-3.801-3.759-6.134-5.369c-4.641-3.224-10.353-5.686-15.845-7.679
				c-5.152-1.841-9.605-3.839-17.215-6.024l-0.951-0.252l-1.282-0.314c-0.905-0.21-1.854-0.405-2.844-0.568
				c-1.979-0.328-4.125-0.519-6.383-0.437c-4.499,0.142-9.546,1.553-14.017,4.757c-2.239,1.581-4.329,3.582-6.24,5.865
				c-0.478,0.571-0.945,1.158-1.401,1.761c-0.438,0.577-0.971,1.303-1.206,1.67c-0.596,0.888-1.129,1.736-1.64,2.592l-0.749,1.278
				l-0.181,0.318l-0.273,0.453c-0.101,0.162-0.197,0.344-0.294,0.516l-0.206,0.386c-0.472,0.913-0.914,1.817-1.336,2.718
				c-0.844,1.801-1.612,3.589-2.345,5.375c-1.461,3.56-2.789,7.147-4.084,10.519c-0.047,1.276-1.545,3.667-3.786,6.161
				c-2.228,2.518-5.073,5.158-8.124,8.03c-0.746,0.707-1.589,1.495-2.298,2.202c-0.623,0.624-1.281,1.268-1.969,1.913
				c-1.36,1.28-2.75,2.531-4.175,3.744c-5.678,4.868-11.937,9.137-17.914,13.25c-5.979,4.096-11.503,8.189-15.715,12.106
				c-4.245,3.896-7.247,7.488-9.2,10.036C134.589,341.508,133.632,343.02,133.623,343.014z"/>
			<path fill="#8DC63F" d="M133.623,343.014c0.005,0.009,1.364-1.173,3.909-3.05c2.549-1.868,6.311-4.387,11.158-6.81
				c4.843-2.458,10.761-4.704,17.507-7.02c6.728-2.331,14.352-4.932,22.06-8.634c1.925-0.918,3.849-1.904,5.761-2.945
				c0.948-0.514,1.909-1.06,2.897-1.639c0.886-0.52,1.657-0.934,2.533-1.421c3.434-1.904,7.185-3.918,11.058-6.541
				c1.938-1.319,3.917-2.796,5.903-4.625c0.992-0.916,1.985-1.921,2.959-3.057c0.455-0.516,1.042-1.281,1.533-1.953
				c0.261-0.339,0.48-0.703,0.709-1.063c0.254-0.411,0.345-0.522,0.507-0.766c2.326-3.421,4.362-6.551,6.307-9.366
				c0.968-1.403,1.905-2.72,2.801-3.908c0.448-0.594,0.885-1.155,1.307-1.672c0.041-0.045,0.131-0.17,0.13-0.148
				c0.017-0.005,0.025-0.004,0.046-0.014c0.031-0.026,0.008,0.024,0.081-0.065l0.172-0.198l0.673-0.751
				c0.438-0.482,0.869-0.932,1.248-1.301c0.249-0.264,0.216-0.149,0.275-0.175c0.047,0.004,0.083,0.002,0.127,0.009
				c0.163,0.021,0.296,0.071,0.403,0.135c0.217,0.133,0.318,0.321,0.352,0.447c0.017,0.063,0.02,0.112,0.019,0.144l-0.003,0.038
				c-0.003,0.005-0.009,0.002,0.041,0.02l0.307,0.085c5.417,1.553,13.265,3.593,19.672,3.946c3.026,0.207,5.657,0.233,8.045,0.205
				c2.383-0.033,4.499-0.131,6.36-0.272c1.859-0.141,3.456-0.329,4.836-0.564c1.392-0.221,2.514-0.564,3.757-0.743
				c2.469-0.404,4.771-0.342,6.649-1.566c0.944-0.62,1.765-1.568,2.218-2.884c0.451-1.31,0.526-2.994-0.039-4.915
				c-0.539-1.911-1.87-4.091-3.561-6.033c-1.7-1.96-3.801-3.759-6.134-5.369c-4.641-3.224-10.353-5.686-15.845-7.679
				c-5.152-1.841-9.605-3.839-17.215-6.024l-0.951-0.252l-1.282-0.314c-0.905-0.21-1.854-0.405-2.844-0.568
				c-1.979-0.328-4.125-0.519-6.383-0.437c-4.499,0.142-9.546,1.553-14.017,4.757c-2.239,1.581-4.329,3.582-6.24,5.865
				c-0.478,0.571-0.945,1.158-1.401,1.761c-0.438,0.577-0.971,1.303-1.206,1.67c-0.596,0.888-1.129,1.736-1.64,2.592l-0.749,1.278
				l-0.181,0.318l-0.273,0.453c-0.101,0.162-0.197,0.344-0.294,0.516l-0.206,0.386c-0.472,0.913-0.914,1.817-1.336,2.718
				c-0.844,1.801-1.612,3.589-2.345,5.375c-1.461,3.56-2.789,7.147-4.084,10.519c-0.047,1.276-1.545,3.667-3.786,6.161
				c-2.228,2.518-5.073,5.158-8.124,8.03c-0.746,0.707-1.589,1.495-2.298,2.202c-0.623,0.624-1.281,1.268-1.969,1.913
				c-1.36,1.28-2.75,2.531-4.175,3.744c-5.678,4.868-11.937,9.137-17.914,13.25c-5.979,4.096-11.503,8.189-15.715,12.106
				c-4.245,3.896-7.247,7.488-9.2,10.036C134.589,341.508,133.632,343.02,133.623,343.014z"/>
			<g>
				<polygon fill="#9AAA54" points="132.84,343.902 132.804,343.933 132.873,343.828 				"/>
				<path fill="#9AAA54" d="M246.382,260.891c1.712,0.278,3.372,0.501,4.979,0.659c1.604,0.148,3.197,0.274,4.625,0.271
					c2.943,0.008,5.778-0.218,8.412-0.504c5.269-0.598,9.833-1.437,13.512-2.442c2.132,1.521,4.034,3.196,5.568,4.978
					c1.526,1.771,2.709,3.687,3.304,5.447c0.588,1.753,0.608,3.303,0.265,4.545c-0.342,1.245-1.034,2.179-1.902,2.845
					c-1.793,1.368-4.194,1.548-6.633,2.153c-2.347,0.635-5.079,1.177-8.945,1.497c-1.921,0.163-4.084,0.282-6.515,0.326
					c-2.439,0.038-5.108,0.02-8.232-0.217c-1.567-0.125-3.271-0.303-5.274-0.67c-1.515-0.235-3.306-0.584-4.956-0.948
					c-1.672-0.369-3.336-0.782-4.897-1.192l-3.639-0.961c0.002,0.019,0.054-0.29-0.316-0.56c-0.089-0.061-0.2-0.11-0.336-0.14
					c-0.069-0.016-0.14-0.022-0.22-0.025c0.013-0.077-0.229,0.183-0.386,0.329l-0.563,0.583c-0.384,0.402-0.789,0.853-1.205,1.326
					c-0.103,0.118-0.232,0.274-0.234,0.243c-0.018,0.008-0.029,0.01-0.042,0.013c-0.008,0.004-0.009-0.004-0.024,0.01l-0.071,0.087
					l-0.585,0.73c-0.792,1.009-1.628,2.144-2.492,3.363c-1.733,2.447-3.563,5.21-5.566,8.205l-1.551,2.301l-0.404,0.592
					l-0.219,0.326l-0.311,0.493c-0.417,0.68-0.894,1.27-1.401,1.935c-1.817,2.269-3.653,3.974-5.488,5.491
					c-3.667,2.999-7.25,5.121-10.653,7.072l-10.005,5.594c-7.113,3.889-14.437,6.83-21.182,9.218
					c-6.759,2.395-12.939,4.393-18.273,6.639c-5.341,2.212-9.848,4.669-13.364,6.96c-3.519,2.282-6.052,4.326-7.54,5.552
					c1.546-1.658,4.057-4.279,7.626-7.244c3.557-2.975,8.213-6.221,13.767-9.299c5.537-3.111,11.943-6.073,18.533-9.526
					c6.591-3.435,13.313-7.528,19.508-12.35c3.132-2.334,6.353-4.597,9.384-7.079c3.015-2.483,5.913-5.168,7.999-8.442
					c3.641-6.715,6.568-13.375,10.077-19.07c1.825-2.785,3.674-5.417,5.893-7.521c1.108-1.039,2.322-1.922,3.631-2.495
					c1.303-0.587,2.677-0.843,3.988-0.903c2.623-0.097,5.05,0.418,7.131,0.812C243.196,260.301,244.939,260.66,246.382,260.891z"/>
			</g>
			<path fill="#C8DC64" d="M248.707,247.544c-0.742-0.222-1.568-0.457-2.516-0.706l-1.521-0.383l-1.05-0.251l-1.335-0.299
				c-3.673-0.781-7.842-1.222-12.148-0.391c-4.311,0.796-8.646,2.985-12.261,6.405c-1.816,1.701-3.483,3.67-5.007,5.789
				l-0.282,0.394l-0.197,0.295l-0.39,0.589l-0.723,1.146c-0.471,0.763-0.914,1.519-1.34,2.272c-0.124,0.231-0.694,1.158-0.835,1.479
				l-0.602,1.203c-0.391,0.799-0.763,1.595-1.123,2.388c-0.718,1.586-1.382,3.163-2.022,4.737c-1.276,3.143-2.448,6.288-3.603,9.306
				l-0.431,1.12c-0.029,0.08-0.087,0.213-0.092,0.249l-0.025,0.12c-0.011,0.08-0.029,0.157-0.052,0.231
				c-0.028,0.234-0.24,0.713-0.489,1.177c-0.505,0.94-1.222,1.994-2.097,3.079c-1.747,2.181-4.033,4.46-6.489,6.795l-3.82,3.607
				c-0.647,0.61-1.348,1.293-1.888,1.829c-0.542,0.539-1.137,1.107-1.723,1.656c-2.35,2.206-4.788,4.296-7.272,6.275
				c-4.964,3.96-10.142,7.462-14.908,10.755c-4.773,3.282-9.07,6.41-12.45,9.271c-3.395,2.852-5.902,5.39-7.557,7.194
				c-1.501,1.192-2.275,1.86-3.426,2.874c-1.138,1.027-2.679,2.379-5.411,5.264c0.009,0.005,0.966-1.506,2.914-4.065
				c1.954-2.548,4.955-6.14,9.2-10.036c4.211-3.917,9.736-8.011,15.715-12.106c5.978-4.114,12.236-8.383,17.914-13.25
				c1.425-1.212,2.815-2.464,4.175-3.744c0.688-0.645,1.346-1.29,1.969-1.913c0.709-0.707,1.552-1.495,2.298-2.202
				c3.05-2.872,5.896-5.512,8.124-8.03c2.24-2.494,3.738-4.884,3.786-6.161c1.296-3.372,2.624-6.959,4.084-10.519
				c0.733-1.785,1.501-3.573,2.345-5.375c0.422-0.901,0.864-1.805,1.336-2.718l0.206-0.386c0.098-0.172,0.194-0.354,0.294-0.516
				l0.273-0.453l0.181-0.318l0.749-1.278c0.511-0.855,1.044-1.704,1.64-2.592c0.235-0.367,0.768-1.093,1.206-1.67
				c0.456-0.603,0.923-1.19,1.401-1.761c1.911-2.283,4.001-4.284,6.24-5.865c4.47-3.204,9.518-4.615,14.017-4.757
				c2.258-0.082,4.404,0.109,6.383,0.437c0.99,0.163,1.939,0.358,2.844,0.568l1.282,0.314l0.951,0.252
				c2.395,0.662,4.325,1.31,6.156,1.939c1.817,0.629,3.499,1.245,5.127,1.851c0.396,0.15,0.958,0.34,1.3,0.481l0.963,0.391
				l2.246,0.841c1.599,0.584,3.294,1.207,4.977,1.877c6.753,2.662,13.263,6.196,17.679,10.879
				c-4.666-4.272-10.666-7.243-16.829-9.543c-1.539-0.575-3.088-1.106-4.592-1.606c-1.493-0.498-2.978-0.971-4.18-1.399l-0.95-0.34
				l-1.191-0.397l-2.264-0.755C252.051,248.584,250.454,248.068,248.707,247.544z"/>
			<path fill="#7E8C45" d="M135.862,339.844c-1.043,1.63-1.568,2.556-1.571,2.555c0.003,0.006,1.357-1.295,3.921-3.383
				c2.571-2.077,6.394-4.893,11.396-7.666c4.988-2.813,11.164-5.463,18.087-8.316c6.908-2.861,14.567-6.161,22.03-10.583
				c0.931-0.552,1.862-1.114,2.785-1.696c0.909-0.563,1.908-1.227,2.727-1.762l5.266-3.354c3.603-2.321,7.346-4.773,10.937-8.072
				c0.896-0.831,1.779-1.722,2.634-2.7c0.429-0.491,0.844-0.99,1.26-1.544c0.45-0.607,0.871-1.172,1.232-1.807l1.673-2.776
				l1.554-2.626c2.03-3.445,3.955-6.714,5.851-9.585l0.707-1.052l0.351-0.508l0.167-0.236l0.111-0.143l1.444-1.842l0.728-0.878
				l0.346-0.401l0.228-0.241c0.304-0.316,0.609-0.618,0.921-0.897c1.22-1.134,2.679-1.88,4.116-1.839
				c0.707-0.004,1.371,0.114,1.988,0.246l0.895,0.215l1.176,0.314c2.055,0.567,4.051,1.135,5.708,1.525
				c2.592,0.621,5.184,1.127,7.739,1.509c2.741,0.407,5.102,0.531,7.36,0.615c4.485,0.144,8.406,0.026,11.904-0.082
				c3.497-0.11,6.548-0.247,9.335-0.197c2.792,0.023,5.361,0.406,7.412,0.413c-0.128,2.28-1.217,3.854-2.557,4.727
				c-1.878,1.224-4.18,1.162-6.649,1.566c-1.243,0.179-2.365,0.522-3.757,0.743c-1.38,0.235-2.978,0.423-4.837,0.564
				c-1.861,0.142-3.977,0.24-6.359,0.272c-2.389,0.028-5.02,0.002-8.046-0.205c-6.407-0.353-14.255-2.393-19.672-3.946l-0.306-0.084
				c-0.049-0.019-0.043-0.015-0.041-0.02l0.003-0.038c0.001-0.032-0.002-0.08-0.019-0.144c-0.033-0.125-0.134-0.314-0.352-0.447
				c-0.107-0.064-0.24-0.114-0.403-0.135c-0.043-0.007-0.08-0.005-0.127-0.009c-0.06,0.026-0.026-0.088-0.276,0.175
				c-0.379,0.369-0.81,0.818-1.248,1.3l-0.673,0.752l-0.172,0.198c-0.073,0.088-0.05,0.039-0.081,0.064
				c-0.021,0.009-0.029,0.009-0.046,0.014c0-0.022-0.09,0.104-0.131,0.148c-0.422,0.517-0.859,1.078-1.307,1.672
				c-0.896,1.188-1.833,2.505-2.801,3.908c-1.945,2.814-3.98,5.944-6.307,9.366c-0.162,0.243-0.253,0.355-0.507,0.766
				c-0.229,0.36-0.449,0.724-0.709,1.063c-0.491,0.672-1.078,1.437-1.533,1.953c-0.974,1.136-1.967,2.142-2.959,3.057
				c-1.987,1.829-3.966,3.306-5.903,4.625c-3.874,2.623-7.625,4.637-11.058,6.541c-0.875,0.488-1.647,0.902-2.533,1.421
				c-0.989,0.579-1.95,1.125-2.898,1.639c-1.912,1.041-3.835,2.027-5.76,2.945c-7.709,3.702-15.333,6.304-22.06,8.634
				c-6.746,2.316-12.664,4.562-17.507,7.02c-4.847,2.423-8.609,4.942-11.158,6.81c-2.545,1.877-3.904,3.059-3.909,3.05
				C133.629,343.018,134.372,341.859,135.862,339.844z"/>
		</g>
	</g>
</g>
<path fill="#A7A9AC" d="M320.304,284.433c7.13,21.5,11.778,71.299,38.448,77.375c-4.731-13.52-10.645-29.129-11.948-43.375"/>
<path fill="#A7A9AC" d="M325.5,62.5c0.167,0,0.333,0,0.5,0"/>
<radialGradient id="SVGID_46_" cx="286.7129" cy="649.5" r="62.8182" gradientTransform="matrix(1 0 0 0.2 0 519.6)" gradientUnits="userSpaceOnUse">
	<stop  offset="0" style="stop-color:#DA1C5C"/>
	<stop  offset="0" style="stop-color:#58595B"/>
	<stop  offset="1" style="stop-color:#F1F2F2;stop-opacity:0.85"/>
</radialGradient>
<ellipse fill="url(#SVGID_46_)" cx="286.713" cy="649.5" rx="88.091" ry="11.5"/>
</svg>
